<?xml version="1.0" encoding="utf-8"?>
<!-- Generator: Adobe Illustrator 26.3.0, SVG Export Plug-In . SVG Version: 6.00 Build 0)  -->
<svg version="1.1" xmlns="http://www.w3.org/2000/svg" xmlns:xlink="http://www.w3.org/1999/xlink" x="0px" y="0px"
	 viewBox="0 0 500 500" style="enable-background:new 0 0 500 500;" xml:space="preserve">
<style type="text/css">
	.st0{fill:#5C63CC;}
	.st1{opacity:0.7;fill:#FFFFFF;}
	.st2{opacity:0.3;}
	.st3{fill:none;stroke:#000000;stroke-linecap:round;stroke-linejoin:round;stroke-miterlimit:10;}
	.st4{fill:#7E7158;stroke:#241432;stroke-linecap:round;stroke-linejoin:round;stroke-miterlimit:10;}
	.st5{fill:#FFFFFF;stroke:#241432;stroke-width:0.5;stroke-linecap:round;stroke-linejoin:round;stroke-miterlimit:10;}
	.st6{fill:#5C63CC;stroke:#241432;stroke-linecap:round;stroke-linejoin:round;stroke-miterlimit:10;}
	.st7{fill:none;stroke:#241432;stroke-width:0.5;stroke-linecap:round;stroke-linejoin:round;stroke-miterlimit:10;}
	.st8{fill:#241432;}
	.st9{fill:#FFFFFF;stroke:#241432;stroke-linecap:round;stroke-linejoin:round;stroke-miterlimit:10;}
	.st10{fill:#241432;stroke:#241432;stroke-linecap:round;stroke-linejoin:round;stroke-miterlimit:10;}
	.st11{fill:none;stroke:#241432;stroke-linecap:round;stroke-linejoin:round;stroke-miterlimit:10;}
	.st12{fill:#D4D0C8;}
	.st13{fill:none;stroke:#FFFFFF;stroke-linecap:round;stroke-linejoin:round;stroke-miterlimit:10;}
	.st14{fill:none;stroke:#5C63CC;stroke-width:3;stroke-linecap:round;stroke-linejoin:round;stroke-miterlimit:10;}
</style>
<g id="Background_Simple">
	<g>
		<path class="st0" d="M456.6,355.04c-21.54,36.16-58.77,72.78-102.68,77.64c-66.35,7.35-83.08,56.71-194.94,31.52
			c-17.44-3.93-33.23-9.35-47.44-16.01c-7.64-3.58-14.81-7.52-21.53-11.79c-61-38.64-84.68-103.58-76.37-165.52
			c10.92-81.46,74.28-109.72,115.01-125.61c40.73-15.89,100.76-95.22,210.91-71.31c16.79,3.65,33.23,9.03,48.77,16.43
			c35.46,16.87,69.32,46.09,85.41,82.73c1.21,2.75,2.33,5.55,3.38,8.38C497.52,236.88,485.96,305.74,456.6,355.04z"/>
		<path class="st1" d="M456.6,355.04c-21.54,36.16-58.77,72.78-102.68,77.64c-66.35,7.35-83.08,56.71-194.94,31.52
			c-17.44-3.93-33.23-9.35-47.44-16.01c-7.64-3.58-14.81-7.52-21.53-11.79c-61-38.64-84.68-103.58-76.37-165.52
			c10.92-81.46,74.28-109.72,115.01-125.61c40.73-15.89,100.76-95.22,210.91-71.31c16.79,3.65,33.23,9.03,48.77,16.43
			c35.46,16.87,69.32,46.09,85.41,82.73c1.21,2.75,2.33,5.55,3.38,8.38C497.52,236.88,485.96,305.74,456.6,355.04z"/>
	</g>
</g>
<g id="Bricks">
	<g class="st2">
		<rect x="423.78" y="171.45" class="st3" width="29.29" height="12.26"/>
		<rect x="408.11" y="187.12" class="st3" width="29.29" height="12.26"/>
		<polyline class="st3" points="462.71,187.12 470.09,187.12 470.09,199.38 440.8,199.38 440.8,187.12 455.44,187.12 		"/>
	</g>
	<g class="st2">
		<rect x="278.07" y="345.84" class="st3" width="29.29" height="12.26"/>
		<rect x="262.41" y="361.51" class="st3" width="29.29" height="12.26"/>
		<polyline class="st3" points="317,361.51 324.38,361.51 324.38,373.76 295.1,373.76 295.1,361.51 309.73,361.51 		"/>
	</g>
	<g class="st2">
		<rect x="46.97" y="201.92" class="st3" width="29.29" height="12.26"/>
		<rect x="31.31" y="217.58" class="st3" width="29.29" height="12.26"/>
		<polyline class="st3" points="85.91,217.58 93.29,217.58 93.29,229.84 64,229.84 64,217.58 78.63,217.58 		"/>
	</g>
	<g class="st2">
		<rect x="423.78" y="202.85" class="st3" width="29.29" height="12.26"/>
		<rect x="408.11" y="218.52" class="st3" width="29.29" height="12.26"/>
		<polyline class="st3" points="455.03,230.78 440.8,230.78 440.8,218.52 470.09,218.52 470.09,230.78 459.88,230.78 		"/>
	</g>
	<g class="st2">
		<rect x="255.49" y="65.24" class="st3" width="29.29" height="12.26"/>
		<rect x="239.82" y="80.9" class="st3" width="29.29" height="12.26"/>
		<polyline class="st3" points="294.42,80.9 301.8,80.9 301.8,93.16 272.51,93.16 272.51,80.9 287.15,80.9 		"/>
	</g>
	<g class="st2">
		<rect x="121.85" y="318.03" class="st3" width="29.29" height="12.26"/>
		<rect x="106.18" y="333.69" class="st3" width="29.29" height="12.26"/>
		<polyline class="st3" points="160.78,333.69 168.16,333.69 168.16,345.95 138.87,345.95 138.87,333.69 153.51,333.69 		"/>
	</g>
	<g class="st2">
		<rect x="129.09" y="99.85" class="st3" width="29.29" height="12.26"/>
		<rect x="113.43" y="115.52" class="st3" width="29.29" height="12.26"/>
		<polyline class="st3" points="168.02,115.52 175.4,115.52 175.4,127.78 146.12,127.78 146.12,115.52 160.75,115.52 		"/>
	</g>
	<g class="st2">
		<rect x="309.43" y="379.84" class="st3" width="29.29" height="12.26"/>
		<rect x="293.76" y="395.5" class="st3" width="29.29" height="12.26"/>
		<polyline class="st3" points="340.68,407.76 326.45,407.76 326.45,395.5 355.74,395.5 355.74,407.76 345.53,407.76 		"/>
	</g>
</g>
<g id="Books">
	<g>
		<g>
			<path class="st4" d="M142.2,429.87v-7.82c0-2.53,2.05-4.58,4.58-4.58H85.91c-2.53,0-4.58,2.05-4.58,4.58v7.82
				c0,2.53,2.05,4.58,4.58,4.58h60.87C144.25,434.46,142.2,432.4,142.2,429.87z"/>
			<g>
				<path class="st5" d="M185.24,418.1l0.52-0.34c0.13-0.08,0.07-0.28-0.08-0.28h-38.89c-2.53,0-4.58,2.05-4.58,4.58v7.82
					c0,2.53,2.05,4.58,4.58,4.58h38.89c0.15,0,0.21-0.2,0.08-0.28l-0.52-0.34V418.1z"/>
				<path class="st5" d="M147.38,418.1h37.86v15.74h-37.86c-2.4,0-4.34-1.94-4.34-4.34v-7.07
					C143.05,420.04,144.99,418.1,147.38,418.1z"/>
				<line class="st5" x1="144.37" y1="420.99" x2="159.54" y2="420.99"/>
				<line class="st5" x1="155.56" y1="422.43" x2="169.72" y2="422.43"/>
				<line class="st5" x1="164.12" y1="424.21" x2="150.56" y2="424.21"/>
				<line class="st5" x1="144.71" y1="429.64" x2="153.61" y2="429.64"/>
				<line class="st5" x1="151.32" y1="430.91" x2="164.63" y2="430.91"/>
				<line class="st5" x1="149.71" y1="432.1" x2="153.27" y2="432.1"/>
				<line class="st5" x1="159.71" y1="428.45" x2="182.35" y2="428.45"/>
				<line class="st5" x1="184.98" y1="424.81" x2="180.31" y2="424.81"/>
				<line class="st5" x1="184.21" y1="423.62" x2="179.47" y2="423.62"/>
				<line class="st5" x1="184.21" y1="431.25" x2="172.34" y2="431.25"/>
			</g>
		</g>
		<g>
			<path class="st6" d="M145.48,412.48v-7.82c0-2.53,2.05-4.58,4.58-4.58H89.19c-2.53,0-4.58,2.05-4.58,4.58v7.82
				c0,2.53,2.05,4.58,4.58,4.58h60.87C147.53,417.06,145.48,415.01,145.48,412.48z"/>
			<g>
				<path class="st4" d="M188.52,400.7l0.52-0.34c0.13-0.08,0.07-0.28-0.08-0.28h-38.89c-2.53,0-4.58,2.05-4.58,4.58v7.82
					c0,2.53,2.05,4.58,4.58,4.58h38.89c0.15,0,0.21-0.2,0.08-0.28l-0.52-0.34V400.7z"/>
				<path class="st5" d="M150.67,400.7h37.86v15.74h-37.86c-2.39,0-4.34-1.94-4.34-4.34v-7.07
					C146.33,402.64,148.27,400.7,150.67,400.7z"/>
				<line class="st7" x1="147.65" y1="403.6" x2="162.82" y2="403.6"/>
				<line class="st7" x1="158.84" y1="405.04" x2="173" y2="405.04"/>
				<line class="st7" x1="167.4" y1="406.82" x2="153.84" y2="406.82"/>
				<line class="st7" x1="147.99" y1="412.24" x2="156.89" y2="412.24"/>
				<line class="st7" x1="154.6" y1="413.52" x2="167.91" y2="413.52"/>
				<line class="st7" x1="152.99" y1="414.7" x2="156.55" y2="414.7"/>
				<line class="st7" x1="162.99" y1="411.06" x2="185.63" y2="411.06"/>
				<line class="st7" x1="188.26" y1="407.41" x2="183.59" y2="407.41"/>
				<line class="st7" x1="187.49" y1="406.23" x2="182.75" y2="406.23"/>
				<line class="st7" x1="187.49" y1="413.86" x2="175.63" y2="413.86"/>
			</g>
		</g>
		<g>
			<path class="st8" d="M95.12,412.6v-8.47h3.28v0.88h-2.1v2.8h1.7v0.84h-1.7v3.11h2.12v0.85H95.12z"/>
			<path class="st8" d="M99.38,412.6v-8.47h0.81l2.41,5.63v-5.63h0.98v8.47h-0.75l-2.44-5.78v5.78H99.38z"/>
			<path class="st8" d="M106.92,412.7c-0.53,0-0.95-0.11-1.27-0.34c-0.32-0.23-0.55-0.56-0.69-0.99c-0.14-0.43-0.21-0.95-0.21-1.56
				v-2.83c0-0.62,0.06-1.15,0.19-1.58c0.13-0.44,0.36-0.77,0.69-1c0.33-0.23,0.79-0.35,1.39-0.35c0.53,0,0.96,0.09,1.28,0.27
				c0.32,0.18,0.56,0.45,0.71,0.82c0.15,0.37,0.22,0.83,0.22,1.39v0.31h-1.11v-0.26c0-0.37-0.02-0.67-0.07-0.9
				c-0.05-0.23-0.15-0.41-0.3-0.52c-0.15-0.11-0.39-0.17-0.71-0.17c-0.35,0-0.6,0.08-0.76,0.24c-0.16,0.16-0.25,0.38-0.29,0.65
				c-0.04,0.28-0.06,0.59-0.06,0.94v3.14c0,0.4,0.03,0.74,0.09,1.01c0.06,0.27,0.17,0.47,0.34,0.61c0.17,0.13,0.4,0.2,0.71,0.2
				c0.31,0,0.54-0.07,0.71-0.22c0.17-0.15,0.28-0.36,0.34-0.65c0.06-0.29,0.09-0.64,0.09-1.07v-0.59h-1.08v-0.84h2.14v4.19h-0.74
				l-0.11-0.97c-0.11,0.31-0.29,0.57-0.52,0.77C107.66,412.6,107.33,412.7,106.92,412.7z"/>
			<path class="st8" d="M110.49,412.6v-8.47h1.18v7.62h2.16v0.85H110.49z"/>
			<path class="st8" d="M114.71,412.6v-8.47h1.16v8.47H114.71z"/>
			<path class="st8" d="M119.23,412.69c-0.49,0-0.89-0.1-1.22-0.31c-0.32-0.21-0.57-0.5-0.74-0.87c-0.17-0.37-0.27-0.8-0.29-1.29
				l1.05-0.28c0.02,0.3,0.07,0.59,0.14,0.87c0.07,0.28,0.19,0.51,0.36,0.68c0.17,0.18,0.4,0.27,0.7,0.27c0.31,0,0.54-0.08,0.7-0.26
				c0.16-0.17,0.24-0.42,0.24-0.74c0-0.38-0.09-0.69-0.26-0.93c-0.17-0.23-0.39-0.47-0.66-0.71l-1.42-1.25
				c-0.28-0.24-0.48-0.51-0.62-0.8c-0.13-0.29-0.2-0.65-0.2-1.07c0-0.62,0.18-1.1,0.53-1.44c0.36-0.34,0.84-0.51,1.45-0.51
				c0.33,0,0.63,0.04,0.88,0.13c0.25,0.09,0.47,0.22,0.64,0.4c0.17,0.18,0.31,0.41,0.41,0.68c0.1,0.28,0.17,0.6,0.2,0.97l-1,0.27
				c-0.02-0.28-0.06-0.54-0.13-0.77c-0.06-0.23-0.17-0.42-0.33-0.56c-0.16-0.14-0.38-0.21-0.67-0.21c-0.29,0-0.52,0.08-0.69,0.24
				c-0.16,0.16-0.25,0.39-0.25,0.7c0,0.26,0.04,0.47,0.13,0.64c0.09,0.17,0.23,0.34,0.42,0.51l1.43,1.25c0.32,0.28,0.6,0.61,0.85,1
				c0.24,0.39,0.37,0.84,0.37,1.38c0,0.42-0.09,0.78-0.26,1.08c-0.17,0.3-0.41,0.54-0.72,0.7
				C119.98,412.61,119.63,412.69,119.23,412.69z"/>
			<path class="st8" d="M122.18,412.6v-8.47h1.18v3.66h2.18v-3.66h1.18v8.47h-1.18v-3.96h-2.18v3.96H122.18z"/>
		</g>
	</g>
</g>
<g id="Flag">
	<g>
		<g>
			<rect x="60.52" y="272.1" class="st9" width="2.37" height="145.6"/>
			<polygon class="st9" points="60.52,272.1 58.86,268.55 61.46,262.87 63.98,268.75 62.88,272.1 			"/>
			<path class="st9" d="M75.04,428.78l-3.66-1.63c-1.57-0.7-2.98-1.73-4.11-3.02c-1.91-2.18-2.97-4.97-2.97-7.87v-0.84h-2.43h-0.32
				h-2.43v0.84c0,2.9-1.05,5.69-2.97,7.87c-1.14,1.29-2.54,2.32-4.11,3.02l-3.66,1.63c-2.52,1.12-4.14,3.61-4.14,6.37h16.82h1.29
				h16.82C79.18,432.39,77.56,429.9,75.04,428.78z"/>
		</g>
		<g>
			<path class="st9" d="M85.31,386.41c-0.26,2.53-0.67,4.67-1.33,5.7c-0.38,0.6-1.35,1.46-2.71,2.46
				c-6.79,5.05-23.22,13.95-23.22,13.95L33.1,367.99l-5.94-9.65l-2.24-3.63c0,0-0.99-1.64-1.32-3.61
				c-0.15-0.91,7.97-17.52,16.78-35.19c1.79-3.6,3.62-7.25,5.4-10.81c8.51-16.95,16.21-32.09,16.21-32.09s10.83,24.94,13.13,33.79
				c0.84,3.23,1.67,8.83,2.43,14.83c0.58,4.53,1.11,9.3,1.55,13.45c0.59,5.37,1.03,9.69,1.27,11.1c0.65,3.94,5.25,25.26,5.25,25.26
				S85.95,380.12,85.31,386.41z"/>
			<path class="st6" d="M85.31,386.41c-0.74-2.68-1.6-5.62-2.32-7.54c-1.63-4.36-15.64-32.91-15.64-32.91s7.79-5.88,11.75-10.88
				c-0.44-4.15-0.97-8.92-1.55-13.45c-2.77,2.87-10.26,10.39-14.93,12.87c0,0-10.54-19.64-13.64-24.37c-1.14-1.74-2.25-3.5-3.2-5.03
				c-1.78,3.56-3.61,7.21-5.4,10.81l13.33,24.23c0,0-21.17,13.43-26.55,18.2l5.94,9.65l25.16-16.03l23.01,42.61"/>
			<polygon class="st6" points="61.99,273 61.94,274.1 60.07,316.31 62.26,320.49 64.62,278.3 			"/>
			<polygon class="st6" points="80.26,352.14 82.26,359.59 75.9,352.5 73.9,347.59 			"/>
			<polygon class="st6" points="41.34,333.04 44.07,336.13 32.43,332.13 33.89,329.77 			"/>
			<polygon class="st6" points="59.35,366.68 59.53,407.97 62.07,406.51 62.07,369.23 			"/>
			<polygon class="st10" points="49.71,297.76 57.53,311.58 58.26,280.48 			"/>
			<path class="st10" d="M67.89,287.39l-1.09,37.1l10.18-8.91l-1.87-8.79C75.12,306.8,70.99,291.76,67.89,287.39z"/>
			<polygon class="st10" points="80.08,342.5 76.26,345.77 81.53,349.95 			"/>
			<polygon class="st10" points="85.35,384.32 81.35,363.41 86.08,375.96 			"/>
			<polygon class="st10" points="76.26,397.6 64.98,377.05 64.44,404.87 			"/>
			<polygon class="st10" points="53.71,400.87 54.25,362.14 36.8,373.78 			"/>
			<path class="st10" d="M25.16,353.59c0,0,10.18-10.73,16.73-12.91l-11.82-4L23.6,351.1L25.16,353.59z"/>
		</g>
	</g>
</g>
<g id="Plant">
	<g>
		<g>
			<path class="st8" d="M194.23,358.68c1.68,0.73,5.79,0.64,5.79,0.64c0.04,0-0.88-2.69-0.96-2.85c-0.9-1.89-3.75-5-6.07-4.69
				c-1.67,0.23-2.6,1.9-2.22,3.47C191.15,356.87,192.8,358.06,194.23,358.68z"/>
			<path class="st8" d="M195.65,370.59c1.74,0.25,5.41-0.81,5.7-0.9c0.58,2.05,1.34,4.11,2.22,6.15c0.5,1.17,1.05,2.33,1.61,3.49
				c-0.33-0.49-0.64-0.93-0.69-0.98c-1.37-1.58-4.94-3.83-7.1-2.92c-1.55,0.66-2.01,2.52-1.23,3.94c0.8,1.45,2.7,2.16,4.25,2.39
				c1.57,0.23,4.71-0.62,5.54-0.85c0.22,0.44,0.43,0.88,0.66,1.33c1.06,2.11,2.13,4.22,3.12,6.32c0.35,0.74,0.66,1.48,0.98,2.22
				c-0.3-0.44-0.55-0.8-0.6-0.85c-1.37-1.58-4.94-3.83-7.1-2.92c-1.55,0.66-2.01,2.52-1.23,3.94c0.8,1.45,2.7,2.16,4.25,2.39
				c1.5,0.22,4.41-0.53,5.39-0.81c0.3,0.77,0.61,1.54,0.87,2.29c0.17,0.52,0.36,1.01,0.5,1.54c0.15,0.52,0.29,1.04,0.43,1.56
				c0.24,1,0.49,2.03,0.7,3.01c0.15,0.68,0.28,1.33,0.42,1.99c-0.34-0.74-1.03-2.17-1.1-2.29c-1.11-1.77-4.3-4.54-6.57-3.96
				c-1.63,0.42-2.37,2.18-1.81,3.7c0.57,1.55,2.34,2.55,3.84,3.01c1.64,0.5,5.28,0.04,5.74-0.02c0.22,1.09,0.42,2.15,0.59,3.15
				c0.39,2.21,0.68,4.2,0.91,5.88h1.53c-0.27-1.74-0.62-3.81-1.08-6.13c-0.22-1.11-0.47-2.28-0.74-3.49
				c0.27-0.11,1.83-0.74,3.2-1.51c1.2,1.3,4.27,2.82,4.67,3.01c-0.42,1.03-0.83,2.02-1.24,2.96c-0.85,1.95-1.66,3.69-2.37,5.16h1.66
				c0.61-1.36,1.28-2.91,1.99-4.62c0.43-1.04,0.87-2.16,1.3-3.32c0.44,0.09,4.04,0.82,5.72,0.44c1.52-0.34,3.37-1.21,4.05-2.71
				c0.67-1.47,0.07-3.29-1.53-3.83c-2.22-0.75-5.61,1.77-6.85,3.46c-0.07,0.1-0.75,1.26-1.16,2.01c0.18-0.47,0.35-0.93,0.53-1.42
				c0.35-0.97,0.68-1.94,1.03-2.99c0.15-0.51,0.31-1.03,0.46-1.55c0.17-0.51,0.28-1.08,0.42-1.62c0.3-1.27,0.55-2.57,0.76-3.88
				c0.85,0.31,3.87,1.36,5.43,1.25c1.56-0.11,3.51-0.68,4.41-2.07c0.88-1.36,0.57-3.24-0.93-4.02c-2.08-1.07-5.81,0.91-7.29,2.38
				c-0.09,0.09-1.04,1.27-1.54,1.93c0.12-0.79,0.25-1.58,0.35-2.38c0.29-2.32,0.51-4.68,0.74-7.03c0.07-0.72,0.15-1.44,0.22-2.16
				c0.3,0.11,3.86,1.44,5.62,1.32c1.56-0.11,3.51-0.68,4.41-2.07c0.88-1.36,0.57-3.24-0.93-4.02c-2.08-1.07-5.81,0.9-7.29,2.38
				c-0.11,0.11-1.47,1.81-1.79,2.26c0.17-1.58,0.35-3.16,0.59-4.7c0.33-2.13,0.77-4.21,1.35-6.18c0.14,0.05,3.85,1.45,5.65,1.33
				c1.56-0.11,3.51-0.68,4.41-2.07c0.88-1.36,0.57-3.24-0.93-4.02c-2.08-1.07-5.81,0.91-7.29,2.38c-0.12,0.12-1.57,1.94-1.82,2.29
				c0.03-0.12,0.06-0.24,0.09-0.36c0.64-2.1,1.53-4.06,2.45-5.85c0.53-1.04,1.1-2.01,1.67-2.94c0.66,0.33,3.72,1.82,5.35,1.88
				c1.56,0.06,3.57-0.29,4.61-1.57c1.03-1.25,0.92-3.16-0.48-4.09c-1.95-1.3-5.88,0.26-7.51,1.56c-0.09,0.07-0.91,0.89-1.5,1.5
				c0.26-0.41,0.53-0.85,0.79-1.24c0.98-1.48,1.97-2.76,2.85-3.9c0.51-0.64,0.98-1.21,1.43-1.74c0.82-0.01,4.13-0.11,5.58-0.79
				c1.41-0.66,3.03-1.9,3.37-3.52c0.33-1.58-0.64-3.23-2.32-3.41c-2.33-0.25-5.09,2.94-5.94,4.85c-0.07,0.17-0.93,2.88-0.88,2.88
				c0,0,0.04,0,0.05,0c-0.44,0.5-0.91,1.04-1.41,1.64c-0.91,1.12-1.93,2.39-2.94,3.85c-1.02,1.46-2.08,3.07-3.05,4.86
				c-0.97,1.8-1.91,3.74-2.61,5.87c-0.01,0.02-0.01,0.05-0.02,0.07c0.01-0.69-0.02-2.6-0.04-2.75c-0.27-2.07-2.01-5.92-4.31-6.35
				c-1.66-0.31-3.06,0.99-3.2,2.61c-0.13,1.65,1.06,3.3,2.22,4.34c1.31,1.17,4.96,2.31,5.25,2.4c-0.65,2.03-1.15,4.17-1.54,6.36
				c-0.22,1.25-0.41,2.52-0.58,3.8c-0.01-0.59-0.02-1.12-0.03-1.2c-0.27-2.07-2.01-5.92-4.31-6.35c-1.66-0.31-3.06,0.99-3.2,2.61
				c-0.14,1.65,1.06,3.3,2.22,4.34c1.18,1.06,4.27,2.09,5.09,2.35c-0.06,0.49-0.13,0.98-0.18,1.47c-0.28,2.35-0.55,4.7-0.89,6.99
				c-0.12,0.81-0.26,1.6-0.41,2.39c-0.01-0.53-0.02-0.97-0.03-1.04c-0.27-2.07-2.01-5.92-4.31-6.35c-1.66-0.31-3.06,0.99-3.2,2.61
				c-0.13,1.65,1.06,3.3,2.22,4.34c1.13,1.01,3.97,1.98,4.94,2.3c-0.17,0.81-0.34,1.62-0.54,2.39c-0.15,0.53-0.26,1.04-0.44,1.56
				c-0.17,0.52-0.33,1.03-0.5,1.54c-0.35,0.97-0.71,1.97-1.08,2.9c-0.25,0.65-0.5,1.27-0.75,1.89c0.13-0.8,0.34-2.38,0.34-2.51
				c0.03-1.39-0.46-3.65-1.44-5.23c0.01-0.21-0.01-0.41-0.04-0.61c-0.26-1.6-1.76-2.78-3.39-2.35c-2.26,0.6-3.7,4.57-3.8,6.66
				c-0.01,0.12,0.07,1.47,0.14,2.31c-0.11-0.49-0.22-0.97-0.34-1.48c-0.24-1-0.5-1.99-0.79-3.06c-0.15-0.51-0.31-1.03-0.47-1.55
				c-0.15-0.52-0.37-1.05-0.55-1.58c-0.45-1.22-0.96-2.44-1.5-3.66c0.88-0.21,3.97-1,5.22-1.95c1.24-0.95,2.55-2.51,2.54-4.16
				c-0.01-1.62-1.32-3.02-2.99-2.84c-2.33,0.25-4.35,3.96-4.77,6.01c-0.03,0.13-0.16,1.63-0.22,2.46c-0.33-0.73-0.66-1.46-1.02-2.18
				c-1.04-2.1-2.16-4.18-3.26-6.27c-0.34-0.64-0.67-1.28-1-1.92c0.31-0.07,4.02-0.93,5.41-2c1.24-0.95,2.55-2.51,2.54-4.16
				c-0.01-1.62-1.32-3.02-2.99-2.84c-2.33,0.25-4.35,3.96-4.77,6.01c-0.03,0.15-0.23,2.32-0.25,2.87c-0.73-1.41-1.45-2.82-2.1-4.25
				c-0.9-1.96-1.68-3.93-2.29-5.9c0.15-0.03,4.02-0.91,5.44-2.01c1.24-0.95,2.55-2.51,2.54-4.16c-0.01-1.62-1.32-3.02-2.99-2.84
				c-2.33,0.25-4.35,3.96-4.77,6.01c-0.03,0.16-0.24,2.49-0.25,2.91c-0.04-0.12-0.09-0.23-0.12-0.35c-0.62-2.11-0.96-4.23-1.18-6.23
				c-0.13-1.16-0.19-2.28-0.22-3.37c0.74-0.09,4.1-0.54,5.5-1.38c1.34-0.81,2.81-2.21,2.98-3.85c0.17-1.61-0.98-3.15-2.66-3.15
				c-2.34,0-4.76,3.46-5.4,5.45c-0.04,0.11-0.27,1.25-0.43,2.08c-0.01-0.49-0.03-1-0.02-1.47c0-1.77,0.12-3.39,0.23-4.83
				c0.07-0.82,0.15-1.55,0.23-2.24c0.68-0.47,3.38-2.38,4.22-3.74c0.81-1.33,1.48-3.26,0.87-4.79c-0.59-1.51-2.32-2.34-3.81-1.57
				c-2.08,1.08-2.63,5.26-2.28,7.32c0.03,0.18,0.82,2.91,0.85,2.89c0,0,0.03-0.02,0.04-0.03c-0.09,0.66-0.18,1.37-0.26,2.15
				c-0.14,1.44-0.29,3.06-0.33,4.84c-0.05,1.78-0.05,3.71,0.14,5.74c0.18,2.04,0.48,4.17,1.06,6.34c0.01,0.02,0.02,0.05,0.02,0.07
				c-0.37-0.58-1.45-2.16-1.55-2.27c-1.37-1.58-4.94-3.83-7.09-2.92c-1.55,0.66-2.01,2.52-1.23,3.94
				C192.2,369.65,194.1,370.36,195.65,370.59z"/>
			<path class="st8" d="M235.79,359.59c0.04,0.02,0.75-2.73,0.77-2.91c0.29-2.07-0.37-6.24-2.48-7.26
				c-1.52-0.73-3.22,0.15-3.77,1.67c-0.57,1.55,0.15,3.46,1,4.77C232.31,357.4,235.79,359.59,235.79,359.59z"/>
		</g>
		<polygon class="st9" points="230.47,434.61 208.01,434.61 205.2,409.67 233.28,409.67 		"/>
		<g>
			<polygon class="st8" points="205.72,414.24 205.99,416.65 232.49,416.65 232.77,414.24 			"/>
			<polygon class="st8" points="231.9,421.97 232.17,419.55 206.32,419.55 206.59,421.97 			"/>
		</g>
	</g>
</g>
<g id="Lamp">
	<g>
		<polygon class="st10" points="99.06,71.24 99.06,57.43 87.01,57.43 87.01,71.24 49.77,87.82 136.31,87.82 		"/>
		<line class="st11" x1="93.35" y1="57.38" x2="93.35" y2="30.74"/>
	</g>
</g>
<g id="Blackboard">
	<g>
		<rect x="82.88" y="122.67" class="st9" width="259.94" height="194.79"/>
		<rect x="72.95" y="316.93" class="st9" width="279.8" height="10.34"/>
		<rect x="91.51" y="129.14" class="st10" width="242.68" height="181.86"/>
	</g>
</g>
<g id="Text">
	<g>
		<g>
			<path class="st12" d="M143.78,208.72c-0.42-0.2-0.63-0.59-0.63-1.16v-1.26c-0.04-0.35-0.07-0.75-0.07-1.2v-0.13l0.07-9.69
				l-0.07-27.42c0-2.83-0.04-5.29-0.13-7.37c0-0.53,0.11-0.97,0.33-1.33c0.22-0.35,0.51-0.53,0.86-0.53h4.12
				c0.62,0,1.08,0.04,1.39,0.13c0.44,0.13,0.66,0.51,0.66,1.13c0,0.35-0.13,0.64-0.4,0.86c-0.27,0.22-0.55,0.35-0.86,0.4h-1.13
				l-1.06-0.07l-1.06-0.07c-0.31,0-0.52,0.06-0.63,0.17c-0.11,0.11-0.17,0.32-0.17,0.63c0,2.08,0.02,3.96,0.07,5.64v5.64v8.3
				c0,0.09,0.04,0.13,0.13,0.13h0.07h0.07c1.11-0.09,2.3-0.13,3.59-0.13c0.71,0,1.06,0.31,1.06,0.93c0,0.44-0.08,0.74-0.23,0.9
				c-0.16,0.16-0.41,0.23-0.76,0.23h-3.78c-0.18,0-0.27,0.11-0.27,0.33l0.13,9.83c0.09,3.05,0.13,6.57,0.13,10.56v2.46h2.86h2.79
				h0.6c0.8,0,1.2,0.29,1.2,0.86c0,0.71-0.2,1.13-0.6,1.26c-0.53,0.18-1.62,0.27-3.25,0.27h-2.79
				C144.95,209.02,144.2,208.92,143.78,208.72z"/>
			<path class="st12" d="M175.92,208.49c-0.16-0.27-0.3-0.66-0.43-1.19c-0.04-0.35-0.13-0.66-0.27-0.93l0.07-0.2
				c-0.35-2.08-1.11-4.62-2.26-7.64l-1.2-3.45c-0.09-0.09-0.51-1.22-1.26-3.39l-0.53-1.59c-3.98-12.31-6.49-18.97-7.5-19.99
				c-0.35,1.19-0.53,2.74-0.53,4.65c0,1.02,0.02,1.9,0.07,2.66l0.07,2.59l-0.07,1.59c-0.04,0.49-0.07,1.02-0.07,1.59
				c0,0.97,0.04,1.82,0.13,2.52l0.13,2.12h-0.2c0,7.39,0.15,11.47,0.46,12.22v5.98c0.18,0.35,0.27,0.82,0.27,1.39
				c0,0.35-0.12,0.66-0.37,0.93c-0.24,0.27-0.54,0.4-0.9,0.4c-0.93,0-1.39-1.2-1.39-3.59l0.13-2.12c0.09-0.66,0.13-1.39,0.13-2.19
				c0-2.12-0.07-5.31-0.2-9.56c-0.13-4.25-0.2-7.44-0.2-9.56c0-1.28,0.07-3.25,0.2-5.91c0.13-2.61,0.2-4.56,0.2-5.84v-0.86
				c0-2.17,0.4-3.59,1.2-4.25l0.2,0.2l0.66-0.13c0.18,0.04,0.38,0.18,0.6,0.4c0.18,0.18,0.27,0.38,0.27,0.6l0.13,0.4
				c0,0.09,0.02,0.2,0.07,0.33c0.71,3.14,2.3,7.55,4.78,13.21c2.52,5.98,4.09,9.94,4.71,11.89c0.44,1.55,0.8,2.92,1.06,4.12
				c0.84,3.76,1.84,6.66,2.99,8.7l0.13-0.2c1.02-9.83,1.53-21.89,1.53-36.19l-0.07-0.8c-0.04-0.22-0.07-0.51-0.07-0.86
				c0-0.93,0.31-1.39,0.93-1.39c0.4,0,0.74,0.2,1.03,0.6c0.29,0.4,0.43,0.84,0.43,1.33v4.45l-0.33,0.53
				c0,4.21-0.24,11.11-0.73,20.72c-0.49,9.61-0.95,14.83-1.39,15.67l-1.13,0.27v0.07l-0.07-0.07l-0.66,0.2
				C176.33,208.89,176.08,208.76,175.92,208.49z"/>
			<path class="st12" d="M193.62,208.36c-0.97-0.49-1.69-1.43-2.16-2.82c-0.46-1.39-0.87-3.62-1.23-6.67
				c-0.53-4.47-0.8-7.95-0.8-10.42c0-1.5,0.09-3.23,0.27-5.18l0.4-4.18c0.22-3.32,0.48-5.83,0.76-7.54c0.29-1.7,0.93-3.21,1.93-4.52
				c1-1.31,2.53-2.07,4.62-2.29c0.22-0.04,0.57-0.07,1.06-0.07c1.37,0,2.06,0.31,2.06,0.93c0,0.27-0.14,0.5-0.43,0.7
				c-0.29,0.2-0.59,0.3-0.9,0.3l-0.66-0.07l-0.6-0.07c-0.75,0-1.43,0.24-2.02,0.73c-0.6,0.49-1.1,1.2-1.49,2.13
				c-0.93,2.21-1.53,4.38-1.79,6.51c-0.36,2.79-0.58,5.22-0.66,7.3l-0.07,5.11c0,2.17,0.07,3.78,0.2,4.85
				c0.31,0.49,0.52,1.23,0.63,2.22c0.11,1,0.21,2.36,0.3,4.08c0.09,1.55,0.29,2.87,0.6,3.95c0.31,1.09,0.86,1.98,1.66,2.69
				c0.88,0.75,2.1,1.13,3.65,1.13c1.28,0,2.19-0.71,2.72-2.12c0.62-1.5,0.97-3.05,1.06-4.65c0.13-1.99,0.2-3.67,0.2-5.05v-3.65
				c-0.44-0.44-1.22-0.66-2.32-0.66h-0.53c-0.22,0.04-0.46,0.07-0.73,0.07c-1.06,0-1.59-0.27-1.59-0.8c0-0.75,0.53-1.13,1.59-1.13
				c0.75,0,1.37,0.02,1.86,0.07l1.46,0.07c0.84,0.13,1.5,0.29,1.99,0.46c0.53,0.18,0.8,0.42,0.8,0.73c0,0.58-0.13,1.39-0.4,2.46
				c-0.22,1.24-0.33,2.08-0.33,2.52c0,1.86,0.04,3.54,0.13,5.05c0.04,1.55,0.07,3.25,0.07,5.11c-2.26,2.3-4.52,3.45-6.77,3.45
				C196.1,209.09,194.59,208.85,193.62,208.36z"/>
			<path class="st12" d="M212.87,207.96c0.09-0.27,0.13-1,0.13-2.19c0-4.07,0.07-10.11,0.2-18.13c0.13-7.97,0.2-13.72,0.2-17.26
				l0.13-2.39l0.2-1.99c0-0.31,0.15-0.47,0.46-0.47c0.22,0,0.53,0.07,0.93,0.2l0.2,0.07c0,0.97-0.02,1.86-0.07,2.66v2.59v7.24
				c0.04,2.13,0.07,4.54,0.07,7.24c-0.04,0.22-0.07,0.71-0.07,1.46l-0.07,1.39c-0.04,0.89-0.07,1.79-0.07,2.72
				c0,1.02,0.02,1.95,0.07,2.79l0.07,2.86l-0.2,0.53l0.07-0.07c0,0.13-0.02,0.22-0.07,0.27v0.27c0,0.35,0.07,0.66,0.2,0.93
				l-0.2,6.37v0.4c0,0.75,0.02,1.2,0.07,1.33c0,0.22,0.11,0.33,0.33,0.33l3.45,0.13c1.02,0,1.72,0.01,2.09,0.03
				c0.38,0.02,0.61,0.03,0.7,0.03h0.2c0.22,0,0.44,0.12,0.66,0.36c0.22,0.24,0.33,0.5,0.33,0.76c0,0.53-0.35,0.82-1.06,0.86
				c-0.75-0.04-2.59-0.07-5.51-0.07l0.13,0.07c-0.44,0-0.86,0.02-1.26,0.07c-0.35,0.09-0.75,0.13-1.2,0.13
				C213.38,209.49,213,208.98,212.87,207.96z"/>
			<path class="st12" d="M231.13,207.96c-0.22,0-0.4,0.02-0.53,0.07h-0.53c-0.97,0-1.59-0.22-1.86-0.66c0-0.31,0.18-0.57,0.53-0.8
				l0.33-0.33H231l0.27-0.27l0.13-0.6l0.07-0.8c0-2.7-0.07-5.11-0.2-7.24l-0.13-2.46l-0.13-4.85c0-1.73,0.07-4.32,0.2-7.77l0.13-7.7
				c0-3.36-0.11-5.93-0.33-7.7c-0.4-0.13-1.06-0.2-1.99-0.2l-0.73,0.07c-0.27,0.04-0.55,0.07-0.86,0.07c-0.84,0-1.26-0.38-1.26-1.13
				c0-0.18,0.2-0.35,0.6-0.53c0.4-0.18,0.73-0.27,1-0.27c1.68,0,3.36,0.09,5.05,0.27c1.02,0.04,2.04,0.24,3.05,0.6
				c0.8,0.27,1.2,0.64,1.2,1.13c0,0.09-0.07,0.27-0.2,0.53l-1.53,0.13c-0.31-0.27-0.95-0.4-1.93-0.4l-0.33,0.2
				c0.13,0.4,0.2,1.57,0.2,3.52c0,2.92-0.02,5.56-0.07,7.9l-0.13,7.9c0,1.99,0.09,4.41,0.27,7.24c0.13,3.23,0.2,5.67,0.2,7.3v0.86
				c-0.04,0.31-0.07,0.71-0.07,1.2c0,1.02,0.07,1.64,0.2,1.86l-0.07,0.13c0,0.44,0.49,0.66,1.46,0.66c0.4,0,0.73-0.02,1-0.07h1
				c1.28,0,1.93,0.31,1.93,0.93c0,0.4-0.13,0.72-0.4,0.96c-0.27,0.24-0.62,0.36-1.06,0.36c-0.4,0-0.75-0.04-1.06-0.13
				c-0.35-0.04-0.73-0.07-1.13-0.07c-0.27,0-0.66,0.11-1.19,0.33c-0.53,0.27-0.93,0.4-1.2,0.4
				C231.91,208.62,231.31,208.4,231.13,207.96z"/>
			<path class="st12" d="M244.41,208.86c-0.44-0.29-0.69-0.63-0.73-1.03l0.33-0.53c0.18,0,0.57,0.07,1.2,0.2
				c0.49,0.18,0.89,0.27,1.2,0.27c0.97,0,1.84-0.39,2.59-1.16c0.75-0.77,1.33-1.78,1.73-3.02c0.62-2.3,0.93-4.47,0.93-6.51
				c0-3.05-0.93-6.33-2.79-9.83c-1.15-2.04-2.04-3.65-2.66-4.85c-0.62-1.19-1.17-2.57-1.66-4.12c-0.58-1.81-0.86-3.56-0.86-5.25
				c0-1.59,0.4-3.47,1.2-5.64c0.4-1.02,0.96-1.85,1.69-2.49c0.73-0.64,1.52-0.96,2.36-0.96c0.57,0,1.14,0.2,1.69,0.6
				c0.55,0.4,0.83,0.82,0.83,1.26c0,0.35-0.29,0.53-0.86,0.53c-0.18,0-0.4-0.07-0.66-0.2c-0.27-0.13-0.51-0.2-0.73-0.2
				c-0.66,0-1.26,0.27-1.79,0.8c-0.53,0.53-0.93,1.22-1.2,2.06c-0.53,1.64-0.8,3.14-0.8,4.52c0,0.84,0.11,1.7,0.33,2.59
				c0.04,0.27,0.09,0.49,0.13,0.66c0.04,0.18,0.07,0.31,0.07,0.4l0.4,1.33l0.33,1.2l0.53,1.2c0.13,0.31,0.28,0.59,0.43,0.83
				c0.15,0.24,0.3,0.48,0.43,0.7l0.8,1.39c0.18,0.27,0.55,0.9,1.13,1.89c0.58,1,1.11,2.05,1.59,3.15c0.44,0.93,0.77,1.8,1,2.62
				c0.22,0.82,0.42,1.8,0.6,2.95c0.13,1.11,0.2,2.32,0.2,3.65c0,2.12-0.29,4.12-0.86,5.98c-0.8,2.21-1.95,3.76-3.45,4.65
				c-0.84,0.53-1.82,0.8-2.92,0.8l-0.33,0.13C245.32,209.33,244.85,209.14,244.41,208.86z M251.12,166.13
				c0-0.04-0.02-0.07-0.07-0.07v0.07H251.12z"/>
			<path class="st12" d="M271.37,208.69c-0.22-8.19-0.33-14.12-0.33-17.79l-0.2-0.27l0.27-0.6c0-0.8-0.09-1.62-0.27-2.46l-1-0.27
				c-0.4,0.13-0.84,0.2-1.33,0.2c-0.35,0-1.09-0.11-2.19-0.33c-0.75-0.22-1.44-0.33-2.06-0.33l-0.73,0.27
				c0,1.55-0.02,2.94-0.07,4.18c-0.04,1.24-0.07,2.63-0.07,4.18l0.13,0.27c0,1.24,0.07,3.1,0.2,5.58c0.13,2.44,0.2,4.27,0.2,5.51
				c0,0.49-0.09,0.9-0.27,1.23c-0.18,0.33-0.44,0.5-0.8,0.5c-0.97,0-1.46-1.33-1.46-3.98c0-2.26,0.02-4.29,0.07-6.11l0.07-6.04
				c0-4.03-0.07-6.2-0.2-6.51c0.22-0.44,0.33-1.9,0.33-4.38c0-2.12-0.09-4.71-0.27-7.77l-0.13-2.59l-0.13-5.18
				c0-0.31,0.11-0.6,0.33-0.86c0.22-0.27,0.49-0.4,0.8-0.4c0.89,0,1.33,1.28,1.33,3.85c0,3.01-0.02,5.73-0.07,8.17
				c-0.09,2.43-0.13,5.11-0.13,8.03c0,0.53,1.68,0.8,5.05,0.8h0.27c0.84,0,1.45-0.17,1.83-0.5c0.38-0.33,0.56-0.9,0.56-1.69
				c0-2.35-0.16-5.4-0.46-9.16c-0.27-4.07-0.4-7.13-0.4-9.16c0-0.27,0.11-0.5,0.33-0.7c0.22-0.2,0.49-0.3,0.8-0.3l0.6,0.2
				c0.31,0.04,0.51,0.11,0.6,0.2c0,3.45,0.13,8.61,0.4,15.47c0.27,6.91,0.4,12.08,0.4,15.54c0,5.22,0.15,9.61,0.47,13.15l-0.47,0.73
				C273.36,208.91,272.7,208.69,271.37,208.69z M269.18,184.65l0.13,0.13h-0.13V184.65z"/>
			<path class="st12" d="M146.21,267.91c-0.84-0.27-1.56-0.64-2.16-1.13c-0.6-0.49-1.16-1.22-1.69-2.19
				c-0.93-1.77-1.48-4.32-1.66-7.64c-0.09-1.5-0.13-2.83-0.13-3.98v-7.57c0-2.88,0.09-5.67,0.27-8.37c0.13-1.99,0.33-3.67,0.6-5.05
				c0.27-1.37,0.69-2.74,1.26-4.12c0.62-1.42,1.31-2.41,2.06-2.99c0.31-0.27,0.91-0.58,1.79-0.93c0.57-0.22,1.13-0.46,1.66-0.73
				h2.66h0.2c0.04,0.04,0.11,0.07,0.2,0.07l0.33,0.07l0.27,0.2c0.13,0.13,0.2,0.22,0.2,0.27c0.04,0.09,0.07,0.22,0.07,0.4l-0.86,1
				h-2.79c-0.84,0-1.6,0.41-2.29,1.23c-0.69,0.82-1.21,1.85-1.56,3.09c-0.35,1.11-0.64,2.41-0.86,3.92
				c-0.22,1.51-0.35,2.81-0.4,3.92c-0.09,1.42-0.13,2.39-0.13,2.92l-0.13,0.33c0,2.48-0.04,4.71-0.13,6.71l-0.13,6.71
				c0,1.95,0.13,3.74,0.4,5.38c0.22,1.77,0.86,3.36,1.93,4.78c1.02,1.42,2.59,2.12,4.71,2.12c0.66,0,1.22-0.2,1.66-0.6
				c0.66,0,1,0.24,1,0.73c0,0.31-0.28,0.68-0.83,1.1c-0.55,0.42-1.12,0.74-1.69,0.96h-2.19L146.21,267.91z"/>
			<path class="st12" d="M160.29,266.78c0.09-0.27,0.13-1,0.13-2.19c0-4.07,0.07-10.11,0.2-18.13c0.13-7.97,0.2-13.72,0.2-17.26
				l0.13-2.39l0.2-1.99c0-0.31,0.15-0.47,0.46-0.47c0.22,0,0.53,0.07,0.93,0.2l0.2,0.07c0,0.97-0.02,1.86-0.07,2.66v2.59v7.24
				c0.04,2.13,0.07,4.54,0.07,7.24c-0.04,0.22-0.07,0.71-0.07,1.46l-0.07,1.39c-0.04,0.89-0.07,1.79-0.07,2.72
				c0,1.02,0.02,1.95,0.07,2.79l0.07,2.86l-0.2,0.53l0.07-0.07c0,0.13-0.02,0.22-0.07,0.27v0.26c0,0.36,0.07,0.66,0.2,0.93
				l-0.2,6.37v0.4c0,0.75,0.02,1.2,0.07,1.33c0,0.22,0.11,0.33,0.33,0.33l3.45,0.13c1.02,0,1.72,0.01,2.09,0.03
				c0.38,0.02,0.61,0.03,0.7,0.03h0.2c0.22,0,0.44,0.12,0.66,0.36c0.22,0.24,0.33,0.5,0.33,0.76c0,0.53-0.35,0.82-1.06,0.86
				c-0.75-0.04-2.59-0.07-5.51-0.07l0.13,0.07c-0.44,0-0.86,0.02-1.26,0.07c-0.35,0.09-0.75,0.13-1.2,0.13
				C160.79,268.31,160.42,267.8,160.29,266.78z"/>
			<path class="st12" d="M188.57,267.81c-0.18-0.16-0.31-0.57-0.4-1.23c-0.4-3.23-0.64-5.25-0.73-6.04l-0.33-2.66
				c-0.97-0.22-2.08-0.33-3.32-0.33l-2.39-0.13c-1.06-0.13-1.84-0.2-2.32-0.2c-0.27,0-0.42,0.11-0.47,0.33c0,0.13-0.02,0.2-0.07,0.2
				l-0.13,1.33c-0.04,0.8-0.29,2.39-0.73,4.78c-0.22,1.2-0.49,2.12-0.8,2.79c-0.35,0.75-0.69,1.13-1,1.13
				c-0.27,0-0.55-0.12-0.86-0.37c-0.31-0.24-0.46-0.5-0.46-0.76l0.07-0.2l0.07-0.2c0.8-3.14,1.46-6.26,1.99-9.36l0.8-4.12l0.8-5.05
				l0.73-4.38c0.22-1.2,0.62-3.12,1.2-5.78c0.62-3.01,1-5.07,1.13-6.18c0.04-0.13,0.13-0.95,0.27-2.46
				c0.18-1.68,0.33-2.92,0.46-3.72c0.13-1.15,0.27-1.81,0.4-1.99h0.46c0.13,0.04,0.29,0.07,0.47,0.07c0.53,0,0.93-0.13,1.19-0.4
				c0.31,0,0.59,0.1,0.83,0.3c0.24,0.2,0.37,0.43,0.37,0.7c0,2.12,0.15,4.56,0.46,7.3c0.18,1.42,0.31,2.59,0.4,3.52
				c0.49,5.71,1.73,16.42,3.72,32.14v0.2c0,0.44-0.18,0.77-0.53,1C189.17,268.04,188.75,267.97,188.57,267.81z M186.78,256.09
				c-0.44-6.37-1.28-15.78-2.52-28.22l-3.59,17.73c-1.02,5.09-1.53,8.3-1.53,9.63c0,0.22,0.84,0.42,2.52,0.6
				c1.68,0.18,3.16,0.27,4.45,0.27H186.78z"/>
			<path class="st12" d="M196.87,267.68c-0.44-0.29-0.69-0.63-0.73-1.03l0.33-0.53c0.18,0,0.57,0.07,1.2,0.2
				c0.49,0.18,0.89,0.27,1.2,0.27c0.97,0,1.84-0.39,2.59-1.16c0.75-0.77,1.33-1.78,1.73-3.02c0.62-2.3,0.93-4.47,0.93-6.51
				c0-3.06-0.93-6.33-2.79-9.83c-1.15-2.04-2.04-3.65-2.66-4.85c-0.62-1.19-1.17-2.57-1.66-4.12c-0.58-1.81-0.86-3.56-0.86-5.25
				c0-1.59,0.4-3.47,1.2-5.64c0.4-1.02,0.96-1.85,1.69-2.49c0.73-0.64,1.52-0.96,2.36-0.96c0.57,0,1.14,0.2,1.69,0.6
				c0.55,0.4,0.83,0.82,0.83,1.26c0,0.35-0.29,0.53-0.86,0.53c-0.18,0-0.4-0.07-0.66-0.2c-0.27-0.13-0.51-0.2-0.73-0.2
				c-0.66,0-1.26,0.27-1.79,0.8c-0.53,0.53-0.93,1.22-1.2,2.06c-0.53,1.64-0.8,3.14-0.8,4.52c0,0.84,0.11,1.7,0.33,2.59
				c0.04,0.27,0.09,0.49,0.13,0.66c0.04,0.18,0.07,0.31,0.07,0.4l0.4,1.33l0.33,1.2l0.53,1.2c0.13,0.31,0.28,0.59,0.43,0.83
				c0.15,0.24,0.3,0.48,0.43,0.7l0.8,1.39c0.18,0.27,0.55,0.9,1.13,1.89c0.58,1,1.11,2.05,1.59,3.15c0.44,0.93,0.77,1.8,1,2.62
				c0.22,0.82,0.42,1.8,0.6,2.95c0.13,1.11,0.2,2.32,0.2,3.65c0,2.12-0.29,4.12-0.86,5.98c-0.8,2.21-1.95,3.76-3.45,4.65
				c-0.84,0.53-1.82,0.8-2.92,0.8l-0.33,0.13C197.78,268.15,197.31,267.97,196.87,267.68z M203.58,224.95
				c0-0.04-0.02-0.07-0.07-0.07v0.07H203.58z"/>
			<path class="st12" d="M211.88,267.68c-0.44-0.29-0.69-0.63-0.73-1.03l0.33-0.53c0.18,0,0.57,0.07,1.2,0.2
				c0.49,0.18,0.89,0.27,1.2,0.27c0.97,0,1.84-0.39,2.59-1.16c0.75-0.77,1.33-1.78,1.73-3.02c0.62-2.3,0.93-4.47,0.93-6.51
				c0-3.06-0.93-6.33-2.79-9.83c-1.15-2.04-2.04-3.65-2.66-4.85c-0.62-1.19-1.17-2.57-1.66-4.12c-0.58-1.81-0.86-3.56-0.86-5.25
				c0-1.59,0.4-3.47,1.2-5.64c0.4-1.02,0.96-1.85,1.69-2.49c0.73-0.64,1.52-0.96,2.36-0.96c0.57,0,1.14,0.2,1.69,0.6
				c0.55,0.4,0.83,0.82,0.83,1.26c0,0.35-0.29,0.53-0.86,0.53c-0.18,0-0.4-0.07-0.66-0.2c-0.27-0.13-0.51-0.2-0.73-0.2
				c-0.66,0-1.26,0.27-1.79,0.8c-0.53,0.53-0.93,1.22-1.2,2.06c-0.53,1.64-0.8,3.14-0.8,4.52c0,0.84,0.11,1.7,0.33,2.59
				c0.04,0.27,0.09,0.49,0.13,0.66c0.04,0.18,0.07,0.31,0.07,0.4l0.4,1.33l0.33,1.2l0.53,1.2c0.13,0.31,0.28,0.59,0.43,0.83
				c0.15,0.24,0.3,0.48,0.43,0.7l0.8,1.39c0.18,0.27,0.55,0.9,1.13,1.89c0.58,1,1.11,2.05,1.59,3.15c0.44,0.93,0.77,1.8,1,2.62
				c0.22,0.82,0.42,1.8,0.6,2.95c0.13,1.11,0.2,2.32,0.2,3.65c0,2.12-0.29,4.12-0.86,5.98c-0.8,2.21-1.95,3.76-3.45,4.65
				c-0.84,0.53-1.82,0.8-2.92,0.8l-0.33,0.13C212.78,268.15,212.32,267.97,211.88,267.68z M218.58,224.95
				c0-0.04-0.02-0.07-0.07-0.07v0.07H218.58z"/>
			<path class="st12" d="M241.19,269.11c-0.24-0.13-0.37-0.29-0.37-0.46c0-1.77,0.27-5.05,0.8-9.83c0.53-4.78,1.06-8.39,1.59-10.82
				l-1.39,0.13c-0.8,0.09-1.28,0.13-1.46,0.13c-1.33,0-1.99-0.47-1.99-1.39c0-0.44,0.75-0.66,2.26-0.66h1.39
				c0.75,0,1.2-0.02,1.33-0.07c0.13-0.27,0.37-1.86,0.7-4.78c0.33-2.92,0.5-4.71,0.5-5.38c-0.4,0-0.75,0.02-1.06,0.07l-1.13,0.07
				c-1.68,0-2.57-0.4-2.66-1.19l0.53-0.6h1.39c1.64,0,2.66-0.07,3.05-0.2l0.6-4.32c0.62-3.98,0.93-7.17,0.93-9.56v-0.66l-0.07-0.66
				c0-0.97,0.33-1.46,1-1.46l0.46,0.93c0,1.73-0.2,4.29-0.6,7.7c-0.35,3.01-0.53,5.58-0.53,7.7c0.53,0.18,1.46,0.27,2.79,0.27h0.86
				c1.59,0,2.77-0.15,3.52-0.46c1.33-6.2,2.17-11.4,2.52-15.6c0.27-0.35,0.57-0.53,0.93-0.53c0.4,0,0.66,0.22,0.8,0.66
				c0,1.68-0.4,4.18-1.2,7.5c-0.8,3.32-1.19,5.87-1.19,7.64l0.13,0.33h2.46l0.86,0.93c-0.27,0.71-0.55,1.06-0.86,1.06
				c-0.49,0-0.95-0.02-1.39-0.07l-1.39-0.07c-0.66,2.66-1,6-1,10.03l0.4,0.13l0.53-0.07h0.66c1.24,0,1.86,0.42,1.86,1.26
				c0,0.31-0.36,0.6-1.06,0.86h-2.59c-0.04,0.89-0.35,3.96-0.93,9.23c-0.62,5.22-0.93,9.07-0.93,11.55l-0.73,0.86
				c-0.8,0-1.2-0.22-1.2-0.66c0-0.66,0.15-2.04,0.47-4.12c0.27-1.86,0.4-3.25,0.4-4.18c0-1.06,0.22-3.14,0.66-6.24
				c0.4-2.74,0.6-4.8,0.6-6.18c-1.2-0.13-2.99-0.2-5.38-0.2c-0.93,0-1.7,0.09-2.32,0.27c-0.53,4.87-0.75,6.93-0.66,6.18l-0.2,1.99
				c-0.31,3.81-0.64,6.97-1,9.5c-0.18,1.28-0.34,2.21-0.5,2.79c-0.16,0.58-0.32,0.86-0.5,0.86
				C241.67,269.3,241.43,269.24,241.19,269.11z M252.31,245.73l0.73-3.85c0.22-1.46,0.35-2.72,0.4-3.79
				c0.04-0.44,0.07-1.06,0.07-1.86c0-0.44-1.7-0.66-5.11-0.66c-1.02,0-1.75,0.13-2.19,0.4c-0.22,0.49-0.46,1.95-0.73,4.38
				c-0.27,2.44-0.4,4.18-0.4,5.25v0.13l0.07,0.13l1.06,0.13C248.5,246,250.54,245.91,252.31,245.73z"/>
			<path class="st12" d="M265.19,266.98c-0.18-0.18-0.27-0.51-0.27-1c0-0.13,0.06-0.28,0.17-0.43c0.11-0.15,0.23-0.23,0.37-0.23
				h1.93l1.86,0.07c0.71,0,1.16-0.08,1.36-0.23c0.2-0.15,0.3-0.52,0.3-1.1c0-10.31-0.49-23.06-1.46-38.25v-2.12l0.07-2.12
				c0-0.71-0.07-1.21-0.2-1.49c-0.13-0.29-0.4-0.47-0.8-0.56c-0.4-0.09-1.09-0.13-2.06-0.13c-0.27,0-0.51,0.02-0.73,0.07l-0.8,0.07
				c-0.75,0-1.13-0.24-1.13-0.73c0-0.22,0.12-0.4,0.37-0.53c0.24-0.13,0.56-0.22,0.96-0.27c0.62-0.09,2.37-0.13,5.25-0.13
				c0.31,0,0.56,0.11,0.76,0.33c0.2,0.22,0.3,0.46,0.3,0.73v2.06c0,1.37,0.07,3.45,0.2,6.24l0.13,6.31c0,0.93,0.15,4.05,0.46,9.36
				c0.27,5.76,0.4,10.05,0.4,12.88v0.86l0.2,3.65l0.13,3.85l-0.07,0.53l-0.07,0.46l0.27,0.2l1.53-0.13
				c0.44-0.04,0.93-0.07,1.46-0.07c1.37,0,2.06,0.31,2.06,0.93c0,0.62-0.49,0.93-1.46,0.93l-5.31,0.13
				c-1.77,0.09-3.56,0.13-5.38,0.13C265.64,267.25,265.37,267.16,265.19,266.98z"/>
		</g>
		<g>
			<path class="st0" d="M313.52,173.16c0.03-0.01,0.07-0.03,0.11-0.05C313.57,173.2,313.54,173.23,313.52,173.16z"/>
			<path class="st0" d="M314.65,172.28c-0.24,0.27-0.63,0.69-1.02,0.83C313.81,172.84,314.18,172,314.65,172.28z"/>
			<path class="st0" d="M312.84,172.61l0.43-0.22C313.19,172.69,313.04,172.48,312.84,172.61z"/>
			<polygon class="st0" points="313.32,172.84 313.45,172.99 313.14,173.03 			"/>
			<path class="st0" d="M299.06,191.18c0.09,0.02,0.18,0.07,0.26,0.16L299.06,191.18z"/>
			<path class="st0" d="M297.69,191.34c-0.09,0.05-0.14,0.09-0.19,0.12C297.53,191.4,297.59,191.37,297.69,191.34z"/>
			<path class="st0" d="M299.65,190.42l-0.11,0.16C299.56,190.51,299.59,190.46,299.65,190.42z"/>
			<path class="st0" d="M306.99,181.36c0.22-0.03,0.43-0.06,0.58-0.09C307.45,181.62,307.19,181.42,306.99,181.36z"/>
			<path class="st0" d="M292.29,192.91l0.09,0.14C292.29,193.04,292.23,193.01,292.29,192.91z"/>
			<path class="st0" d="M295.57,189.72c0.07,0.06,0.11,0.11,0.14,0.16c-0.02,0-0.04,0.01-0.07,0.01L295.57,189.72z"/>
			<path class="st0" d="M299.91,189.66l-0.01-0.02l0.18-0.04C300.05,189.67,299.99,189.69,299.91,189.66z"/>
			<path class="st0" d="M291.13,193.85c-0.11-0.01-0.23-0.04-0.38-0.1C290.9,193.69,291.06,193.75,291.13,193.85z"/>
			<path class="st0" d="M297.48,191.48L297.48,191.48c0-0.01,0.01-0.02,0.02-0.02C297.5,191.47,297.49,191.47,297.48,191.48z"/>
			<path class="st0" d="M296.72,188.72c-0.07,0.04-0.14,0.08-0.22,0.12C296.54,188.75,296.63,188.71,296.72,188.72z"/>
			<path class="st0" d="M306.99,181.36c-0.06,0.01-0.12,0.02-0.19,0.03C306.85,181.33,306.91,181.34,306.99,181.36z"/>
			<path class="st0" d="M312.96,174.3c-0.1,0.11-0.2,0.06-0.31,0C312.75,174.28,312.85,174.27,312.96,174.3z"/>
			<path class="st0" d="M278.79,192.79l-0.02-0.05C278.79,192.76,278.79,192.78,278.79,192.79z"/>
			<path class="st0" d="M280.92,198c-0.02,0.04-0.04,0.08-0.08,0.12C280.78,198.1,280.83,198.04,280.92,198z"/>
			<path class="st0" d="M285.81,199.16c-0.17,0.18,0.08-0.39,0.09-0.41l-0.13,0.18c0.03-0.06,0.06-0.12,0.1-0.18l-0.2,0.22
				c0.02-0.1-0.03-0.12-0.05-0.16c-0.02-0.03,0-0.02,0-0.11c-0.01-0.1,0.01-0.2,0.09-0.3l-0.38,0.26l0.07-0.66l-0.13,0.43
				c-0.37-0.52-0.48-1.54-0.55-1.66l-0.12,0.13c-0.12-0.05-0.06-0.18-0.06-0.3l-0.19,0.19c-0.37-0.88-0.99-0.86-1.23-1.93
				c-0.18-0.23,0,0.18-0.13,0.25c-0.25-0.05-0.25-0.47-0.18-0.59c-0.32,0.25-0.01,0.6-0.44,0.44c0.07-0.3-0.25,0.31-0.37-0.1
				l0.38-0.38c-0.18-0.17-0.38,0.13-0.5-0.22c0.01-0.48,0.75,0.21,0.51-0.44c-0.18-0.29-1.37-0.13-1.43-0.85
				c-0.49-0.4-0.57,0.62-0.81-0.15l-0.07,0.61c-0.19-0.05-0.38,0.13-0.44-0.22c0.13-0.19,0.26-0.49,0.19-0.67
				c-0.01,0.84-0.81-0.33-0.94,0.52l-0.1-0.24c0,0.04-0.04,0.07-0.09,0.07l-0.19-0.29c0,0.24,0.18,0.71-0.26,0.67l-0.31-0.41
				c-0.19,0.24-0.38,0.13-0.57,0.26l0.17,1.56c0.13-0.13,0.13-0.37,0.32-0.37c0.31,0.28-0.13,0.42,0.24,0.65l0.13-0.25
				c-0.06,0.06-0.06,0.12-0.13,0.06c-0.19-0.05-0.06-0.18,0.06-0.24c0.31-0.01,0.31,0.41,0.18,0.59c0.25,0.41,0.5-0.14,0.63-0.09
				c-0.32,0.43,0.37,0.71,0.3,1.07l0.19-0.31c0.5,0.16,0.37,0.59,0.37,0.83l0.19-0.19c0.18,0.47,1.06,0.32,0.43,1.06l0.13-0.12
				c0.16,0.15,0.47,0.35,0.32,0.65c0.1-0.04,0.23-0.07,0.3-0.01c-0.26,0.26,0.07,0.33,0.26,0.58c-0.01-0.22,0.42-0.36,0.42-0.6
				c0.62,0.22-0.25,0.61-0.07,0.96c0.31,0.11,0.13-0.3,0.25-0.43c0.06,0.66,1.49,0.66,0.86,1.41l-0.37-0.11
				c-0.07,0.3,0,0.42,0.06,0.36c-0.06-0.06,0-0.12,0.07-0.18c0.37,0.22,0.4,0.64,0.4,1.1c0.01,0.46,0.03,1.04,0.33,1.43
				c0.07-0.23,0.05-0.41,0.14-0.54c0.3,0.2-0.34,1.26,0.23,1.64l0.04-0.37c0.18,0.09,0.12,0.6,0.07,0.64
				c0.2-0.45,0.37-0.1,0.58,0.29c0.21,0.37,0.47,0.79,0.7,0.14c0,0.14,0.01,0.3,0.03,0.45c0.19,0.28,0.76-0.02,0.94-0.51
				c0.27-0.97-0.25-0.47-0.13-1.23c0.17-0.19,0.31,0.29,0.59-0.24c0.04,0.27-0.09,0.73-0.17,1.09c-0.07,0.36-0.09,0.63,0.3,0.39
				l0.07-0.41c-0.07,0.12-0.16,0.34-0.27,0.38c-0.23-0.13,0.09-0.52,0.11-0.71l0.74-0.61c0.21,0.44-0.3,0.83-0.32,1.03
				c0.31-0.41,0.6-0.99,0.85-1.47c0.26-0.48,0.48-0.86,0.84-1.03l-0.16-0.07c0.48-0.23,0.37-0.42,0.32-0.61
				c-0.06-0.18-0.1-0.31,0.37-0.29c0.13-0.31-0.43-0.24-0.13-0.62c0.09-0.1,0.16,0.07,0.19,0.13c0.51-0.32-0.14-0.48,0.53-0.59
				l-0.43-0.24c0.68-0.25,1.75-0.18,1.98-0.72c-0.29-0.23-0.5,0.05-0.8-0.04c1-0.1,1.29-1.27,2.02-1.54
				c0.09,0.37,0.76,0.25,0.65,0.76c-0.43-0.24-0.34,0.13-0.54,0.27c1.03,0.42,0.72-1.53,1.47-1l-0.2-0.33
				c0.11-0.04,0.5-0.05,0.46,0.16l0.35-0.73c-0.39,0.01-1.24-0.01-1.07,0.39c-0.44-0.11,0.02-0.41-0.44-0.57
				c0.8,0.04,0.02-0.41,0.48-0.71c0.23,0.54,0.89,0.1,1.06,0.3c0.05-0.2,0.49-0.31,0.72-0.3c0.25-0.19,0.41-1,0.88-1.24
				c-0.25,0.02-0.61,0.09-0.85-0.16c0.31-0.05,0.48-0.25,0.22-0.55c-1.11,0.14,0.48,0.82-0.39,1.07c-0.46-0.16-0.69-0.08-1.06,0.12
				c-0.07-0.31-0.2-0.33-0.38-0.59c1.03,0.29,0.93-0.87,1.72-1.03c0.39-0.01,0.69,0.55,1.18,0.17l-0.14,0.58
				c0.2-0.6,0.3,0.09,0.7-0.19l-0.36-0.07c0.15-0.26,0.27-0.3,0.54-0.26l-0.52-0.14c0.06-0.16,0.22-0.41,0.43-0.22
				c-0.06-0.11-0.12-0.18-0.18-0.24c0.08,0.03,0.17,0.01,0.28-0.14c-0.11,0.04-0.14,0.12-0.25,0.03c0.56-0.44-0.27-0.47,0.06-0.76
				c-0.13-0.02-0.14-0.21-0.08-0.36c0.55,0.52,1.2-0.05,1.66,0.07l-0.01-0.01l0.62-0.23c-0.13,0.05-0.19-0.19-0.13-0.37l-0.02,0.02
				c0.04-0.22-0.75-0.39-0.21-0.66l0.36-0.07c-0.06,0.02-0.11-0.09-0.13-0.15l0.36-0.08c-0.2-0.82,0.89-0.38,1-1.01
				c-0.06,0.16-0.27,0.3-0.36,0.07c0.01-0.14,0.18-0.2,0.32-0.18l-0.08-0.04l1.05-0.45c-0.24-0.11-0.65,0.31-0.69-0.08
				c-0.15-0.35,0.32-0.32,0.47-0.44c0.13,0.15,0.02,0.52,0.34,0.34c-0.04-0.1,0.03-0.48-0.18-0.46c0.39-0.12,0.83-0.42,1.31-0.42
				c0-0.13-0.16-0.07-0.22-0.05l0.02,0.06c-0.23,0.08-0.4-0.32-0.53,0.13c-0.5-0.42,0.28-0.57,0.46-0.9l-0.73,0.13
				c0.02-1.34,1.64-1.67,2.32-2.38c-0.05,0.35-0.35,0.4,0.04,0.72c0.59-0.28,0.46-0.3,0.95-0.68l-0.06,0.02
				c0.02-0.41,0.68-0.38,0.49-0.85c-0.3-0.09-0.11,0.51-0.53,0.13l0.55-0.54c-0.41-0.05-0.55,0.54-0.81,0.7
				c-0.12,0.18,0.35-0.26,0.55,0.07c-0.5,0.52-0.88,0.39-1.51,0.29c-0.43-0.11-0.08-0.5,0.01-0.6c0.74,0.06,1.39-0.24,1.68-0.95
				l-0.05-0.58c0.53,0.01,0.99,0.64,1.35,0.1l-0.36-0.07c0.01-0.18,0.04-0.28,0.09-0.33c-0.36,0.04-0.75,0.08-1.1,0.1
				c-0.24-0.71,0.94-0.55,1.4-0.85c-0.08-0.04-0.23,0.08-0.39,0.01c0.43-0.69,1.56-0.77,2.05-1.15c-0.03-0.39-0.49,0.25-0.71-0.14
				c0.34-0.13,0.31-0.65,0.66-0.44c-0.51-0.28,0.47-0.57-0.33-0.48c0.61-1.02,1.86-1.61,2.89-2.26c-0.16-0.07-0.27-0.17-0.32-0.28
				c-0.27,0.3-0.78,0.62-1.22,0.51c-0.03-0.39,0.7-0.19,0.63-0.36c-0.19,0-0.37,0.2-0.58,0.01c0-0.47,0.46-0.3,0.66-0.44l0.02,0.19
				c0.79-0.29,1,0.36,1.43-0.32c-0.06-0.44-0.21-0.19-0.52-0.47c0.25-0.02,0.32-0.78,0.78-0.62l-0.3,0.38
				c0.32-0.17,0.53-0.4,0.8-0.47c-0.08-0.04-0.17-0.09-0.24-0.07c0.28-0.1,0.49-0.38,0.79-0.29l-0.28-0.36
				c0.04,0.25-0.26,0.63-0.5,0.52c-0.26-0.3,0.25-0.49,0.37-0.67c-0.72,0.6-1.25,0.13-1.57,0.91l0.19,0
				c-0.08,0.59-0.84,0.58-1.12,0.9c0.01-0.15-0.09-0.28-0.19-0.29c-0.38,0.94-1.22,1.44-1.79,2.39l-0.55-0.06l0.24,0.25
				c-0.25,0.49-0.43-0.24-0.64,0.03c0.09-0.1,0.11-0.04,0.19,0c-0.7,0.19,0,0.47-0.31,0.65c0.38,0.13,0.55-0.4,0.8,0.04
				c-0.7,0.19-1.19,1.03-1.85,0.54c-0.53,1.06-1.87,1.75-2.57,2.41c0.02,0.19,0.14,0.02,0.19,0.13c-0.61-0.04-0.62,1.16-0.93,0.87
				c-0.04,0.21,0.14,0.48,0.19,0.6c-0.31,0.04-0.58,0.19-0.84,0.37l0.24-0.09l0.03,0.06l-0.34,0.12l-0.01-0.03
				c-0.61,0.48-1.14,1.2-1.95,1.41c0.48-0.11,0.31,0.42,0.56,0.39c-0.74-0.2-1.32,0.42-1.74,0.97c0.11,0.09,0.15,0.21,0.29,0.23
				l-0.47,0.11l0.16,0.08c-0.39,0.61-1.47,0.67-1.56,1.24c0.26-0.16,0.36-0.07,0.55,0.07c-0.36,0.37-0.69,0.71-1.25,1.02
				c0.05,0,0.1,0.02,0.14,0.06c-0.06,0.16-0.31,0.18-0.48,0.24l0.23,0.25c-0.32,0.12-0.46,0.53-0.91,0.61
				c0.18,0.36-0.85,0.41-1.02,0.83c-0.17,0.06,0.52,0.01,0.2,0.32c-0.58-0.45-0.41,0.42-1.02-0.09l-0.06,0.49l-0.35-0.2
				c0.32,0.75-0.59,0.15-0.76,0.68c0.08,0.04,0.14,0.02,0.16,0.08c-0.17,0.06-0.46,0.3-0.41-0.05c-0.18,0.2-0.93,0.74-0.34,0.72
				c-0.19-0.13,0.21-0.27,0.38-0.34c0.24,0.25-0.13,0.45,0.07,0.77c-0.04-0.02-0.11-0.02-0.18-0.03l0.12,0.18
				c-0.61,0.11-0.76,0.67-1.36,0.61c0.06,0.09,0.06,0.21-0.07,0.32l-0.32-0.28l-0.35,0.4l0.62,0.24c-0.3,0.51-1.1,0.34-1.5,0.62
				c0.44,0.57-0.83,0.5-0.65,1.24l0.39-0.14c-0.64,0.5-0.41,0.88-1.09,1.27c0.25-0.62,0.36-0.53,0.56-1.6
				c-0.41,0.88-1.38,0.9-1.65,1.8c0.16,0.07,0.39-0.01,0.37,0.26c-0.38-0.13-0.53,0.59-0.76,0.21c-0.07,0.29,0.19,0.59,0.12,0.75
				c-0.07,0.01-0.19,0.08-0.22,0.05c-0.04-0.02-0.08-0.04-0.12-0.06c-0.08-0.05-0.14-0.1-0.2-0.16l0.05,0.07
				c0.18,0.42-0.03,0.56-0.12,0.42c-0.11-0.13-0.12-0.54-0.1-0.62c0-0.04,0-0.01-0.03,0.09l-0.08,0.35
				c0.03-0.18,0.07-0.36,0.12-0.51c-0.08,0.33-0.12,0.41-0.21,0.67c0.05-0.27,0.12-0.5,0.21-0.68
				C285.99,198.71,285.74,199.21,285.81,199.16z M291.09,194.22l0.18-0.15c0.02-0.05,0.04-0.09,0.11-0.09l-0.11,0.09
				C291.22,194.2,291.3,194.38,291.09,194.22z M305.96,179.33c0.22,0.05-0.06,0.16-0.09,0.23l0.29-0.24
				C306.11,179.2,306.02,179.3,305.96,179.33z M293.11,196.07l0.12,0.29l-0.27-0.03L293.11,196.07z M290.93,198.47l0.34-0.13
				l0.02,0.06l-0.34,0.12L290.93,198.47z M286.93,199.43c0.02,0.01,0.03,0.01,0.06,0.02C286.97,199.45,286.95,199.44,286.93,199.43
				c-0.19-0.1,0.07,0.37-0.26,0C286.49,199,286.76,199.35,286.93,199.43z M290.66,195.38c0.11-0.04,0.17-0.06,0.2-0.14
				c-0.16-0.07-0.49-0.08-0.43-0.24c0.22,0.05,0.51-0.19,0.72,0C290.71,195.02,291.14,195.73,290.66,195.38z M295.97,189.9
				l-0.03,0.08l0.36-0.07L295.97,189.9z M297.12,189.08c0.38,0.13,0.62-0.23,0.88-0.39c-0.18-0.27-0.65-0.3-0.86-0.02
				C296.67,188.78,297.4,189.11,297.12,189.08z M289.38,197.57l0.24,0.11l-0.03,0.08l0.34-0.12c-0.03,0.54-0.71,0.33-0.94,0.41
				C289.14,197.93,289.94,197.97,289.38,197.57z M299.26,187.04c0.36-0.07,0.93-0.27,1.08-0.06c-0.34-0.34-0.79-0.18-0.88-0.08
				C299.43,186.97,299.37,187,299.26,187.04z M299.91,187.66c-0.45,0.17-0.64,0.03-1.19-0.03c0.14-0.45,0.67-0.11,0.82,0.1
				c0.36-0.07,0.1-0.24,0.16-0.39L299.91,187.66z M298.62,187.07l-0.07,0.17c0.01,0.29,0.38,0.69-0.22,0.53l0.22-0.53
				C298.54,187.18,298.56,187.12,298.62,187.07z M301.08,184.45l-0.24,0.02C300.97,184.35,301.03,184.38,301.08,184.45l0.2-0.01
				C301.15,184.83,301.16,184.57,301.08,184.45z M299.31,186.55l-0.38,0.34C299.12,187.02,299.25,186.71,299.31,186.55z
				 M301.32,184.82c-0.12,0.18-0.45,0.63-0.42,0.55C300.74,185.16,301.12,184.82,301.32,184.82z M309.38,177.08l-0.23,0.22
				l-0.15-0.34L309.38,177.08z M307.03,180l-0.07-0.17l0.14-0.12L307.03,180z M304.71,182.55c-0.04-0.06-0.12-0.12-0.19-0.15
				c-0.06,0.02-0.12,0.02-0.19-0.01c0.03-0.04,0.11-0.03,0.19,0.01c0.15-0.05,0.26-0.23,0.25-0.37c-0.16-0.07-0.28,0.1-0.42,0.09
				c-0.08-0.5,1.29-0.21,0.3-0.84c0.19,0,0.73-0.13,0.77,0.12C305.11,181.61,304.74,182.2,304.71,182.55
				c0.03,0.05,0.05,0.11,0.01,0.16C304.7,182.66,304.7,182.61,304.71,182.55z M301.74,186.13c-0.11,0.08-0.17,0.09-0.22,0.09
				c-0.14,0.02-0.29,0-0.39-0.13c0.29-0.11,0.27,0.11,0.39,0.13C301.6,186.2,301.68,186.17,301.74,186.13z M301.23,186.78l0.45-0.16
				l-0.33-0.01l0.78-0.15C302.05,186.88,301.5,186.95,301.23,186.78z M301.29,187.04l-0.26-0.12l0.3,0.09L301.29,187.04l0.06,0.03
				l-0.6,0.42L301.29,187.04z M295.91,192.06c0.52,0.84,0.93-0.01,1.36,0.2c-0.21-0.24-0.39-0.78-0.86-0.25
				c0.18-0.66,0.71,0.14,0.37-0.67c-0.15,0.25-0.57,0.34-0.63,0.36l0.21-0.27C295.79,191.17,296.21,192.01,295.91,192.06z
				 M293.51,194.86l-0.32,0.32l0.35-0.26L293.51,194.86z M285.95,203.44c0.04,0.29-0.52,1.49-0.55,0.9
				C285.64,203.99,285.88,203.76,285.95,203.44z M283.45,200.27l0.1,0.62c-0.45,0.25-0.22-0.49-0.41-0.66
				C283.32,200.01,283.27,200.29,283.45,200.27z M281.97,197.3l0-0.18l-0.38,0.38L281.97,197.3z M281.46,197.8
				c-0.25,0.01-0.19,0.37-0.13,0.43L281.46,197.8z M279.74,195.34l0.12,0.17l0.32-0.37L279.74,195.34z M280.36,195.41
				c-0.27,0.19-0.67,0.36-0.25,0.7c0.31-0.13,0.25-0.25,0.69-0.27c0-0.18-0.19-0.23-0.25-0.29c0,0.12,0.19,0.17,0,0.3
				C280.35,195.75,280.31,195.56,280.36,195.41c0.1-0.07,0.17-0.14,0.19-0.22C280.46,195.24,280.4,195.32,280.36,195.41z
				 M281.47,196.82c0.07,0.04,0.13,0.07,0.19,0.07l-0.06,0.06C281.44,196.96,281.44,196.89,281.47,196.82
				c-0.07-0.04-0.14-0.1-0.21-0.16c-0.28,0.08-0.31,0.46-0.41,0.61c0-0.18,0.19-0.43-0.06-0.54c-0.06,0.06-0.13,0.06-0.06,0.18
				l-0.19-0.23c0.21-0.48,0.46-0.25,0.72-0.03c0.06-0.02,0.13-0.03,0.22-0.01C281.54,196.68,281.49,196.76,281.47,196.82z
				 M281,194.45l0,0.18c-0.06,0.12-0.19,0.13-0.25,0.19C280.68,194.65,280.75,194.34,281,194.45z M285.19,202.61
				c-0.08,0.04-0.09,0.77,0.05,0.85l-0.19,0.57c0.08-0.47-0.15-0.86-0.17-0.95C285,202.43,285.02,202.85,285.19,202.61z
				 M292.21,195.8c0.45,0.3,0.63-0.36,0.82-0.37C292.91,195.75,292.51,196.36,292.21,195.8z M292.77,194.88
				c0.12-0.12,0.11-0.19,0.3,0.01c0.14,0.02,0.12-0.18,0.26-0.16C293.28,195.13,292.98,194.82,292.77,194.88
				c-0.03,0.03-0.07,0.06-0.12,0.1C292.68,194.92,292.72,194.9,292.77,194.88z M288.35,199.61l-0.44-0.1l-0.21,0.28L288.35,199.61z
				 M286.19,200.91c0.03,0.3-0.15,0.51-0.18,0.37c-0.01,0.45,0.12,0.25,0.23,0.18c0.01,0.02,0.04,0.02,0.07-0.02
				c-0.02-0.01-0.05,0-0.07,0.02c-0.04-0.06-0.02-0.3-0.03-0.45l0.04-0.17l-0.11,0L286.19,200.91z M284.46,198.28
				c-0.31-0.11-0.25-0.17-0.25-0.35C284.34,197.93,284.46,198.1,284.46,198.28z M286.83,199.85c-0.08,0.3,0.3,0.34,0.26,0.59
				l0.08-0.13c0,0.47-0.27-0.2-0.32-0.01l0.04-0.13c-0.09-0.33-0.18-0.1-0.27-0.33C286.61,199.67,286.84,199.74,286.83,199.85z
				 M284.46,197.86c-0.44-0.22,0.13-0.43,0.07-0.66C284.9,197.36,284.4,197.56,284.46,197.86z M286.07,199.4l0.01-0.09
				c-0.01-0.07-0.01-0.15-0.01-0.23l-0.01,0.1C286.05,199.25,286.06,199.33,286.07,199.4z M296.32,285.49
				c0.08,0.03,0.21,0.05,0.31,0.08C296.33,285.55,296.18,285.53,296.32,285.49z M300.46,286.14c-1.08-0.1-2.78-0.28-3.83-0.58
				C297.59,285.61,300.2,285.57,300.46,286.14z M296.22,284.6l1.32,0.3C296.74,284.96,296.92,284.72,296.22,284.6z M296.65,285.15
				l-0.09,0.19l-0.69-0.27L296.65,285.15z M227.91,284.17c0.14,0.08,0.23,0.18,0.16,0.3L227.91,284.17z M224.79,283.3
				c-0.28-0.03-0.48-0.04-0.64-0.05C224.34,283.24,224.5,283.25,224.79,283.3z M230.74,284.06l-0.55,0.03
				C230.36,284.06,230.56,284.05,230.74,284.06z M265.29,283.97c0.51,0.16,1,0.31,1.35,0.42
				C265.64,284.5,265.57,284.17,265.29,283.97z M210.4,280.65l-0.13,0.16C210.12,280.75,210.05,280.68,210.4,280.65z M224.02,280.65
				c0.01,0.09-0.01,0.16-0.07,0.21l-0.16-0.04L224.02,280.65z M232.93,283.74l0.03-0.02l0.45,0.1
				C233.17,283.85,233.02,283.82,232.93,283.74z M206.01,280.54c-0.2-0.08-0.39-0.19-0.56-0.34
				C205.88,280.26,206.08,280.41,206.01,280.54z M224.07,283.25C224.06,283.25,224.07,283.25,224.07,283.25c0.02-0.01,0.05,0,0.08,0
				C224.12,283.25,224.1,283.25,224.07,283.25z M228.53,280.78c-0.24-0.02-0.46-0.05-0.72-0.07
				C228.12,280.67,228.37,280.71,228.53,280.78z M265.29,283.97c-0.14-0.05-0.28-0.09-0.43-0.14
				C265.07,283.84,265.19,283.9,265.29,283.97z M292.68,285.48c-0.43-0.04-0.52-0.16-0.59-0.29
				C292.32,285.26,292.52,285.36,292.68,285.48z M135.62,288.14l-0.17,0.01C135.52,288.14,135.58,288.14,135.62,288.14z
				 M152.25,287.2c0.08,0.03,0.17,0.06,0.23,0.11C152.34,287.36,152.26,287.29,152.25,287.2z M167.32,282.31
				c-1.07,0.3-2.23-0.1-3.18-0.06l0.34,0.18l-0.97-0.1l0.03,0.28c-1.59-0.03-3.53,0.39-4.14-0.02l0.22,0.44l-1.7-0.24l0.98,0.24
				c-1.87,0.23-4.76,0.08-5.16,0.12l0.18,0.16c-0.3,0.11-0.55,0.01-0.88-0.02l0.27,0.23c-2.84,0.13-3.57,0.76-6.75,0.75
				c-0.86,0.13,0.48,0.04,0.51,0.18c-0.46,0.24-1.58,0.13-1.83,0.04c0.28,0.37,1.61,0.15,0.62,0.54c-0.73-0.14,0.52,0.33-0.75,0.35
				l-0.54-0.47c-0.7,0.14-0.11,0.4-1.22,0.45c-1.29-0.11,1.51-0.7-0.54-0.6c-1.02,0.12-2.06,1.35-4.07,1.25
				c-1.69,0.42,0.97,0.7-1.41,0.79l1.54,0.19c-0.38,0.18-0.11,0.41-1.14,0.39c-0.34-0.17-1-0.36-1.55-0.33
				c2.25,0.18-1.89,0.75,0.22,1.06l-0.77,0.05c0.1,0.01,0.13,0.06,0.08,0.1l-1.01,0.13c0.64,0.05,2.13-0.04,1.47,0.39L134.7,289
				c0.42,0.24-0.11,0.41,0,0.63l4.37,0.14c-0.19-0.15-0.82-0.21-0.6-0.4c1.14-0.25,0.97,0.22,2.04-0.1l-0.5-0.18
				c0.09,0.08,0.25,0.09,0.01,0.14c-0.37,0.18-0.55,0.02-0.57-0.12c0.36-0.32,1.47-0.22,1.82-0.05c1.41-0.16,0.25-0.53,0.55-0.65
				c0.77,0.41,2.35-0.22,3.25-0.06l-0.59-0.26c1.04-0.46,2.03-0.23,2.67-0.17l-0.26-0.23c1.5-0.07,2.18-0.98,3.39-0.17l-0.17-0.16
				c0.61-0.13,1.53-0.38,2.14-0.16c0.01-0.11,0.1-0.25,0.35-0.29c0.36,0.32,0.98,0.01,1.88-0.11c-0.61-0.05-0.45-0.51-1.09-0.57
				c1.37-0.56,1.32,0.41,2.49,0.32c0.69-0.28-0.65-0.21-0.83-0.36c1.83,0.12,3.66-1.31,4.86-0.48l-0.76,0.34
				c0.73,0.15,1.13,0.12,1.03,0.04c-0.23,0.04-0.31-0.04-0.4-0.11c2.15-0.6,3.45,0.44,5.64,0.12c-0.17-0.16-0.49-0.19-0.51-0.33
				c1-0.24,1.04,0.81,2.65,0.35l-0.33-0.17c0.54-0.15,0.96,0.1,0.89,0.17c0-0.77,3.46-0.16,4.55-1.22c0.83,0.37,3.14,0.57,3.83,0.3
				c0.98-0.51-0.92-0.45-0.57-0.9c0.79-0.05,1.23,0.35,2.39,0.14c0.04,0.42-2.27,0.99-0.05,1.11l0.3-0.25
				c-0.23,0.04-0.54,0.15-0.86,0.11c-0.65-0.21,0.37-0.31,0.51-0.43l2.38,0c0.2,0.44-1.23,0.4-1.37,0.53
				c1.87-0.19,4.1-0.95,5.86-0.73l-0.17-0.16c2.24,0.28,1.26-0.89,3.07-0.24c0.93-0.16-0.36-0.46,1.05-0.56
				c0.4-0.02,0.17,0.16,0.1,0.22c1.74,0.08,0.75-0.46,2.37-0.12l-0.37-0.46c1.93,0.25,3.96,1.02,5.6,0.76
				c-0.11-0.36-1.13-0.29-1.55-0.56c2.26,0.59,5.37-0.11,7.45,0.17c-0.61,0.34,1,0.69-0.31,1c-0.36-0.47-0.97-0.13-1.68-0.16
				c1.18,1,4.77-0.68,5.15,0.23l0.29-0.38c0.32,0.05,1.13,0.31,0.58,0.44l2.27-0.29c-0.81-0.26-2.51-0.86-3.03-0.45
				c-0.66-0.38,0.93-0.28,0.34-0.72c1.54,0.58,0.93-0.28,2.52-0.19c-0.7,0.55,1.59,0.69,1.53,0.95c0.51-0.11,1.67,0.11,2.12,0.28
				c0.91,0.03,3-0.45,4.47-0.3c-0.56-0.15-1.44-0.35-1.38-0.7c0.72,0.18,1.51,0.15,1.64-0.25c-2.57-0.66-0.81,0.93-3.13,0.52
				c-0.58-0.44-1.22-0.53-2.41-0.64c0.54-0.27,0.3-0.38,0.51-0.69c1.48,0.92,3.8,0,5.71,0.43c0.81,0.27,0.21,0.87,2.03,0.96
				l-1.56,0.31c1.71-0.28,0.41,0.28,1.83,0.37l-0.57-0.3c0.87-0.07,1.19-0.02,1.67,0.2l-0.74-0.47c0.47-0.06,1.33-0.13,1.35,0.15
				c0.12-0.12,0.16-0.21,0.16-0.29c0.09,0.08,0.31,0.13,0.86,0.11c-0.32-0.05-0.55-0.02-0.56-0.16c2.09,0.09,0.48-0.52,1.78-0.49
				c-0.21-0.11,0.16-0.25,0.62-0.31c-0.02,0.75,2.54,0.82,3.22,1.23l-0.01-0.01l1.75,0.28c-0.35-0.06,0.03-0.27,0.53-0.35l-0.08,0
				c0.55-0.12-0.66-0.81,1-0.61l0.88,0.22c-0.16-0.03-0.01-0.14,0.08-0.2l0.9,0.21c1.38-0.69,2.6,0.41,4.22,0.08
				c-0.47,0.06-1.18,0-0.87-0.23c0.31-0.08,0.79,0,1.03,0.11l-0.08-0.08l3.09,0.48c-0.25-0.25-1.98-0.28-1.2-0.57
				c0.46-0.34,1.34,0.03,1.9,0.06c-0.07,0.2-1.1,0.37-0.06,0.48c0.13-0.1,1.11-0.3,0.65-0.44c1.06,0.21,2.59,0.34,3.54,0.7
				c0.3-0.09-0.17-0.17-0.33-0.2l-0.08,0.06c-0.64-0.11-0.09-0.51-1.35-0.31c-0.1-0.64,1.81-0.19,2.91-0.24
				c-0.58-0.16-1.16-0.32-1.75-0.47c2.97-0.85,6.94,0.23,9.86,0.31c-0.86,0.18-1.58-0.03-1.49,0.48c1.81,0.29,1.57,0.17,3.38,0.32
				l-0.15-0.03c0.94-0.24,2.21,0.29,2.83-0.15c-0.4-0.29-1.34,0.23-1.34-0.34c0.76,0.04,1.52,0.06,2.28,0.11
				c-0.71-0.37-2.28-0.1-3.15-0.21c-0.63,0.02,1.26,0.11,0.95,0.47c-2.13-0.07-2.61-0.44-3.64-1c-0.63-0.41,0.94-0.38,1.34-0.37
				c1.34,0.63,3.32,0.91,5.44,0.75l1.18-0.38c1.03,0.44,0.56,1.18,2.45,1.17l-0.55-0.33c0.42-0.1,0.69-0.13,0.89-0.12
				c-0.8-0.27-1.67-0.57-2.39-0.85c1.1-0.61,3.08,0.46,4.65,0.67c-0.08-0.09-0.63-0.14-0.79-0.31c2.37-0.05,4.8,0.84,6.62,1.03
				c0.79-0.25-1.5-0.26-1.1-0.67c0.95,0.21,2.05-0.12,2.29,0.3c-0.39-0.59,2.2,0.12,0.4-0.54c3.47,0,7.24,0.79,10.69,1.35
				c-0.16-0.18-0.14-0.32,0.01-0.42c-1.18-0.08-2.9-0.36-3.53-0.8c0.8-0.23,1.81,0.51,2.04,0.36c-0.39-0.17-1.17-0.22-1.17-0.5
				c1.04-0.24,1.57,0.24,2.28,0.35l-0.4,0.12c2.19,0.55,1.15,1.04,3.51,1.1c0.88-0.26,0.02-0.28,0.04-0.71
				c0.54,0.22,2.37-0.06,2.9,0.45l-1.42-0.11c0.98,0.22,1.92,0.32,2.6,0.53c-0.06-0.1-0.11-0.2-0.32-0.25
				c0.78,0.22,1.79,0.29,2.17,0.61l0.27-0.43c-0.49,0.15-1.9,0.04-2.12-0.23c0.17-0.38,1.58,0.01,2.21,0.04
				c-2.74-0.41-2.71-1.11-5.07-1.06l0.38,0.18c-1.48,0.18-2.93-0.52-4.21-0.58c0.37-0.07,0.45-0.23,0.29-0.31
				c-2.85,0.15-5.61-0.31-8.85-0.33l-0.94-0.52l-0.08,0.34c-1.58,0.04-0.31-0.5-1.33-0.54c0.39,0.03,0.31,0.08,0.39,0.17
				c-1.81-0.52-1.03,0.24-2.06,0.08c0.47,0.37,1.97,0.25,1.48,0.7c-1.8-0.51-4.65-0.39-4.88-1.23c-3.41,0.18-7.59-0.54-10.44-0.72
				c-0.39,0.13,0.24,0.12,0.09,0.23c-1.11-0.5-3.8,0.24-3.8-0.18c-0.55,0.1-0.79,0.41-0.94,0.52c-0.72-0.22-1.58-0.34-2.5-0.42
				l0.67,0.13l-0.07,0.06l-0.95-0.19l0.04-0.03c-2.29-0.17-4.93-0.15-7.01-0.62c1.19,0.28-0.31,0.51,0.26,0.68
				c-1.05-0.68-3.58-0.71-5.63-0.65c0.01,0.14-0.15,0.25,0.09,0.37l-1.19-0.28l0.16,0.17c-2.13,0.11-4.45-0.65-5.86-0.34
				c0.87,0.08,0.88,0.23,0.96,0.45c-1.53-0.03-2.97-0.03-4.75-0.21c0.1,0.04,0.16,0.09,0.16,0.14c-0.47,0.06-1.03-0.1-1.51-0.17
				l-0.06,0.34c-0.91-0.15-2.09,0.04-3.18-0.22c-0.42,0.38-2.63-0.32-3.88-0.15c-0.48-0.08,1.05,0.38-0.29,0.37
				c-0.2-0.73-1.74,0-1.86-0.79l-1.17,0.31l-0.27-0.39c-0.98,0.76-1.53-0.3-3.01-0.03c0.08,0.08,0.24,0.11,0.16,0.17
				c-0.48-0.07-1.59-0.1-0.74-0.32c-0.79,0.02-3.49-0.1-2.27,0.29c-0.09-0.22,1.02-0.06,1.5,0.01c-0.06,0.34-1.25,0.24-1.53,0.61
				c-0.04-0.04-0.2-0.09-0.31-0.14l-0.16,0.21c-1.5-0.34-3-0.03-4.1-0.49c-0.06,0.11-0.32,0.19-0.83,0.18l-0.03-0.42l-1.58,0.05
				l0.76,0.59c-1.73,0.18-2.97-0.47-4.4-0.53c-0.34,0.72-2.79-0.17-4,0.5l1.12,0.15c-2.38-0.04-2.74,0.4-4.97,0.23
				c1.87-0.3,1.89-0.16,4.61-0.84c-2.74,0.4-4.77-0.24-7.28,0.29c0.18,0.16,0.81,0.24,0.2,0.44c-0.51-0.34-2.37,0.12-2.02-0.32
				c-0.78,0.18-0.89,0.58-1.37,0.67l-2.65-0.4l0.08,0.08c-4.41,1.17-8.36-0.23-12.82,0.43l0.1,0.22l-1.14-0.27
				c0.89,0.17-0.36,0.31-0.42,0.51l-2.9-0.31C166.43,282,166.62,282.44,167.32,282.31z M205.1,280.78l0.68,0.01
				c0.14-0.02,0.28-0.03,0.43,0.01l-0.43-0.01C205.43,280.86,205.18,281.04,205.1,280.78z M267.75,281.95
				c0.32,0.21-0.47,0.04-0.7,0.06l1.1,0.1C268.31,282,267.91,281.98,267.75,281.95z M205.22,283.52l-0.37,0.29l-0.49-0.21
				L205.22,283.52z M195.6,283.88l0.96,0.13l-0.08,0.06l-0.95-0.13L195.6,283.88z M184.81,282.04c0.06,0.01,0.12,0.02,0.19,0.05
				C184.94,282.08,184.88,282.06,184.81,282.04c-0.75-0.17-1.02,0.35-1.65-0.11C183.88,281.47,184.38,281.89,184.81,282.04z
				 M201.74,281.36c0.32,0.04,0.48,0.07,0.72,0.03c-0.17-0.16-0.83-0.39-0.35-0.47c0.33,0.18,1.44,0.2,1.46,0.48
				C202.59,281.13,201.94,281.95,201.74,281.36z M224.44,281.07l-0.24,0.03l0.89,0.21L224.44,281.07z M228.56,281.32
				c0.49,0.36,1.75,0.28,2.62,0.36c0.22-0.32-0.66-0.67-1.69-0.62C228.29,280.78,229.04,281.54,228.56,281.32z M194.36,282.17
				l0.25,0.24l-0.23,0.04l0.96,0.13c-1.24,0.39-2.15-0.22-2.8-0.31C193.1,282.28,194.65,282.84,194.36,282.17z M237.34,281.5
				c0.88,0.23,2.46,0.51,2.31,0.76c0.06-0.48-1.21-0.71-1.61-0.71C237.82,281.59,237.65,281.56,237.34,281.5z M237.29,282.41
				c-1.27-0.23-1.36-0.45-2.33-0.91c1.26-0.2,1.6,0.42,1.45,0.68c0.88,0.23,0.71-0.09,1.18-0.14L237.29,282.41z M235.97,281.05
				l-0.52,0.06c-0.61,0.2-0.74,0.74-1.6,0.19l1.6-0.19C235.59,281.07,235.76,281.04,235.97,281.05z M246.69,281.16l-0.52-0.18
				C246.69,281.01,246.75,281.08,246.69,281.16l0.43,0.15C245.99,281.45,246.57,281.3,246.69,281.16z M238.52,281.22l-1.51-0.06
				C237.1,281.39,238.04,281.28,238.52,281.22z M246.35,281.58c-0.63,0.01-2.29,0.07-2.06,0.04
				C244.44,281.36,245.95,281.42,246.35,281.58z M279.5,283.62l-0.94-0.09l0.48-0.31L279.5,283.62z M268.38,283.22l0.24-0.16
				l0.55,0.05L268.38,283.22z M258.14,282.81c0.05-0.07,0.03-0.17-0.05-0.25c-0.16-0.03-0.29-0.08-0.35-0.15
				c0.14,0,0.27,0.07,0.35,0.15c0.41,0.09,1.02,0.06,1.3-0.04c-0.16-0.17-0.79-0.16-1.03-0.27c0.95-0.39,3.01,0.92,2.46-0.27
				c0.39,0.16,1.74,0.52,1.26,0.7C261,282.57,258.96,282.6,258.14,282.81c-0.05,0.06-0.14,0.11-0.33,0.11
				C257.87,282.88,258,282.84,258.14,282.81z M244.33,282.75c-0.39-0.03-0.55-0.07-0.63-0.1c-0.33-0.09-0.58-0.22-0.48-0.38
				c0.81,0.14,0.29,0.27,0.48,0.38C243.9,282.7,244.12,282.74,244.33,282.75z M241.88,282.8l1.26,0.23l-0.64-0.25l1.9,0.48
				C243.32,283.48,242.05,283.11,241.88,282.8z M241.44,283.02l-0.26-0.28l0.4,0.28L241.44,283.02l0.06,0.06l-2.13-0.17
				L241.44,283.02z M219.61,282.53c-0.79,0.96,1.9,0.66,2.32,1.11c0.08-0.32,0.89-0.82-1.2-0.79c1.8-0.34,1.14,0.61,2.2-0.2
				c-0.86,0.07-1.91-0.17-2.06-0.19l1.02-0.04C221.31,281.83,220.33,282.72,219.61,282.53z M208.65,282.91l-1.34,0.01l1.27,0.05
				L208.65,282.91z M175.64,284.51c0.11,0.22-1.59,0.72-2.02,0.32C174.47,284.72,175.42,284.69,175.64,284.51z M161.46,285.3
				l1.51,0.09c-0.26,0.53-1.34,0.07-2.04,0.2C160.67,285.35,161.23,285.49,161.46,285.3z M151.69,285.98l-0.48-0.05l0.54,0.47
				L151.69,285.98z M152.4,286.61c-0.28,0.25,0.75,0.28,0.99,0.24L152.4,286.61z M143.65,287.73l0.62-0.08l-0.6-0.4L143.65,287.73z
				 M144.6,287.13c0.17,0.31,0.15,0.75,1.57,0.42c0.03-0.34-0.36-0.31,0.14-0.75c-0.48-0.04-0.86,0.13-1.09,0.18
				c0.33,0.03,0.7-0.14,0.8,0.07C145.5,287.22,144.94,287.22,144.6,287.13c-0.06-0.11-0.15-0.21-0.34-0.24
				C144.27,286.99,144.4,287.07,144.6,287.13z M149.79,286.36c0.19-0.06,0.35-0.11,0.42-0.18l0.09,0.08
				C150.12,286.42,149.94,286.4,149.79,286.36c-0.2,0.06-0.44,0.12-0.69,0.18c-0.14,0.3,0.86,0.42,1.13,0.55
				c-0.47-0.04-0.9-0.29-1.51-0.07c0.09,0.08,0.01,0.14,0.41,0.11l-0.85,0.13c-1.01-0.32-0.09-0.52,0.82-0.72
				c0.02-0.07,0.09-0.14,0.26-0.22C149.5,286.26,149.64,286.32,149.79,286.36z M142.84,286.27l0.48,0.04
				c0.25,0.09,0.11,0.22,0.2,0.29C142.96,286.63,142.22,286.5,142.84,286.27z M171.09,284.19c-0.31,0.1,0.43,0.4,1.13,0.27
				l-0.35,0.45c-0.03-0.28-1.44-0.17-1.6-0.19C170,284.35,170.56,284.48,171.09,284.19z M203.98,282.71
				c0.27,0.52,2.07,0.16,2.47,0.29C205.51,283.14,203.39,283.32,203.98,282.71z M207.1,282.42c0.49,0,0.63-0.06,0.59,0.21
				c0.24,0.11,0.63-0.05,0.87,0.06C207.61,282.95,207.65,282.52,207.1,282.42c-0.13,0-0.27,0-0.46-0.01
				C206.84,282.38,206.98,282.39,207.1,282.42z M187.86,283.07l-0.67-0.36l-1.02,0.08L187.86,283.07z M176.83,282.91
				c0.1,0.22-1.08,0.29-1.33,0.19c0.09,0.29,0.88,0.21,1.5,0.21c0.08,0.02,0.21,0.03,0.41,0.02c-0.12-0.01-0.26-0.02-0.41-0.02
				c-0.24-0.06-0.08-0.22-0.09-0.32l0.31-0.1l-0.87-0.03L176.83,282.91z M157.48,283.77c-0.69,0.28-0.77,0.2-1.25,0.15
				C156.37,283.8,156.99,283.72,157.48,283.77z M182.65,282.35c-1.18,0.2,0.59,0.42-0.18,0.6l0.62-0.06
				c-0.99,0.36-0.73-0.3-1.44-0.18l0.47-0.08c0.36-0.3-0.74-0.16-0.84-0.38C181.83,282.11,183.12,282.27,182.65,282.35z
				 M156.35,283.66c-1.15,0.37-0.99-0.24-1.7-0.24C155.57,283.1,155.47,283.65,156.35,283.66z M175.15,281.88l0.07-0.06l-0.96-0.11
				l-0.07,0.06L175.15,281.88z M155.11,286.74c-0.29,0.06-0.48,0.06-0.63,0.05C154.68,286.76,154.89,286.74,155.11,286.74z
				 M210.02,284.37c0.02-0.08,0.13-0.12,0.26-0.15C210.26,284.27,210.2,284.31,210.02,284.37z M212.31,284.5c0.03,0,0.06,0,0.09,0
				c0.02,0.01,0.05,0.02,0.07,0.02L212.31,284.5z M291.96,285.78c0.45,0.41-0.48,0.01-0.87-0.03
				C291.48,285.79,291.66,285.55,291.96,285.78z M288.93,284.86c0.22,0.13,0.55,0.24,0.95,0.31
				C289.62,285.15,289.35,285.09,288.93,284.86z M291.43,285.27c-0.61,0.01-1.13-0.03-1.55-0.1
				C290.27,285.19,290.62,285.09,291.43,285.27z M280.59,284.31c0.47,0.26,1.41,0.21,1.41,0.21c-2.05,0.06,0.38,0.45,0.53,0.63
				C281.27,284.98,281.29,284.7,280.59,284.31z M277.89,284.01c0.21,0.01,0.41,0.02,0.57,0
				C278.26,284.05,278.07,284.04,277.89,284.01z M277.12,284.17c-0.7-0.1-0.93-0.37-1.25-0.59c0.87-0.12,1.39,0.32,2.02,0.43
				C277.39,283.98,276.9,283.91,277.12,284.17z M255.31,284.4c0.16,0.03,0.55,0.04,0.56,0.18l-1.18-0.02
				C254.22,284.47,255.07,284.43,255.31,284.4z M250.97,283.61c-0.95-0.05-0.46,0.33-0.94,0.24l0.06-0.48L250.97,283.61z
				 M251.55,281.19l0.28,0.05c-0.11-0.01-0.21-0.02-0.32-0.02L251.55,281.19z M246.41,283.98l0.64,0.55
				C246.26,284.38,246.26,283.95,246.41,283.98z M242.8,284.3l0.55,0.17l-1.73-0.17L242.8,284.3z M238.46,284.02l-0.15,0.11
				l-1.19-0.14L238.46,284.02z M191.15,284.46c-0.2-0.45,1.71-0.33,2.25-0.47C193.05,284.58,191.88,283.85,191.15,284.46z
				 M156.74,286.41l1.82-0.03C157.17,286.66,158.17,286.42,156.74,286.41z"/>
			<path class="st0" d="M281.58,198.76c-0.08-0.07-0.1-0.13-0.1-0.19C281.52,198.62,281.56,198.68,281.58,198.76z"/>
			<path class="st0" d="M294.91,195.55c-0.05-0.06-0.06-0.11-0.04-0.16C294.89,195.42,294.91,195.47,294.91,195.55z"/>
			<polygon class="st0" points="295.57,195.11 295.59,195.09 295.62,195.09 			"/>
			<path class="st0" d="M313.08,174.72c0.38,0.13-0.06,0.16-0.15,0.26C313.01,174.88,312.86,174.67,313.08,174.72z"/>
			<path class="st0" d="M311.92,175.08c0.13,0.02,0.26-0.02,0.38-0.1C312.25,175.05,312.16,175.1,311.92,175.08z"/>
			<path class="st0" d="M312.62,174.56c-0.08,0.2-0.19,0.34-0.31,0.42C312.38,174.87,312.35,174.69,312.62,174.56z"/>
			<path class="st0" d="M310.09,177.21c0.28,0.03,0.4-0.28,0.4-0.28c-0.31,0.65,0.4,0.18,0.57,0.26
				C310.71,177.45,310.5,177.26,310.09,177.21z"/>
			<path class="st0" d="M309.39,177.81c0.05-0.05,0.09-0.11,0.1-0.17C309.48,177.72,309.44,177.77,309.39,177.81z"/>
			<path class="st0" d="M309.37,178.14c-0.2,0.14-0.44,0.03-0.66-0.02c0.06-0.34,0.48-0.2,0.67-0.31
				C309.28,177.93,309.14,178.04,309.37,178.14z"/>
			<path class="st0" d="M305.29,184.36c0.06-0.02,0.15-0.12,0.25-0.03l-0.27,0.3C305.11,184.69,305.26,184.44,305.29,184.36z"/>
			<path class="st0" d="M303.79,184.98c-0.23,0.22,0.15,0.34-0.02,0.41l-0.34-0.34L303.79,184.98z"/>
			<polygon class="st0" points="302.12,183.19 302.22,183.16 302.14,183.22 			"/>
			<path class="st0" d="M303.1,186.43l0.54,0.2C303.36,186.73,303.05,186.44,303.1,186.43z"/>
			<polygon class="st0" points="302.54,187.56 302.79,187.54 302.28,187.86 			"/>
			<polygon class="st0" points="301.36,188.46 301.41,188.58 301.04,188.78 			"/>
			<path class="st0" d="M290.22,199.86c-0.37-0.26,0.2-0.6,0.24-0.82C290.79,199.52,289.97,199.29,290.22,199.86z"/>
			<path class="st0" d="M282.01,199.16l0.18,0.59C281.82,199.41,282.13,199.64,282.01,199.16z"/>
		</g>
	</g>
</g>
<g id="Table">
	<line class="st11" x1="482.69" y1="434.61" x2="15.06" y2="434.61"/>
</g>
<g id="Character">
	<g>
		<g>
			<polygon class="st6" points="315.1,203.46 297.33,200.17 296.78,203.28 314.37,208.78 			"/>
			<path class="st9" d="M329.57,189.54c0,0-13.92,0.18-15.02,0c-1.1-0.18-1.65,4.03-2.38,5.5c-0.73,1.47-5.13,6.78-4.03,7.69
				c1.1,0.92,5.13,0,5.68-0.73c0.55-0.73,2.2-3.85,2.2-3.85s2.2,0.55,3.48,3.11c1.28,2.56-0.18,6.05-0.92,6.59
				c-0.73,0.55-6.05-1.1-6.96-1.47c-0.92-0.37-2.02-0.92-3.66,0.55c-1.65,1.47-2.56,3.66-1.1,4.58c1.47,0.92,3.85,0.55,4.76,0.92
				c0.92,0.37,6.41,4.58,9.89,5.5c3.48,0.92,10.81,3.48,10.81,3.48l22.17,39.2l8.98,14.84l15.71-28.01c0,0-25.23-20.17-29.63-24.2
				s-9.16-8.98-9.71-10.81c-0.55-1.83-5.31-19.24-6.59-21.62C331.95,188.44,329.57,189.54,329.57,189.54z"/>
		</g>
		<g>
			<g>
				<polygon class="st10" points="450.48,434.61 444.28,376.34 359.04,380.67 360.21,434.61 				"/>
				<path class="st13" d="M408.4,393.43c0,0,0.24,6.5,5.54,10.84c5.3,4.33,13,6.5,13,6.5"/>
				<line class="st13" x1="425.74" y1="392.95" x2="431.76" y2="433.17"/>
				<path class="st13" d="M372.04,394.88c0,0,0.96,30.1,1.69,30.58c0.72,0.48,6.26,3.61,6.26,3.61l-0.72-15.89"/>
			</g>
			<polygon class="st11" points="367.46,385.49 368.67,392.47 380.71,392.71 380.95,385.97 			"/>
			<path class="st9" d="M444.28,376.34l-85.25,4.33l0.2,8.95c5.62,1.62,17.09,4.16,31.83,3.33c18.84-1.07,40.33-5,53.84-10.76
				L444.28,376.34z"/>
		</g>
		<g>
			<path class="st9" d="M374.82,242.62c0,0-6.69,6.91-8.25,11.82s-7.36,15.38-9.81,28.76c-2.45,13.38-5.13,33.67-3.79,47.71
				c1.34,14.05,4.68,39.46,3.79,45.48c-0.89,6.02-0.67,7.36,1.78,8.7c2.45,1.34,22.96,4.9,45.48,2.9
				c22.52-2.01,41.69-8.7,42.36-10.92c0.67-2.23,1.34-8.47,1.34-13.15c0-4.68-0.67-33.44-0.67-34.56c0-1.11,2.68-49.27,3.79-57.97
				c1.11-8.7,2.23-16.05-7.58-23.63c-9.81-7.58-29.43-20.29-29.43-20.29S388.64,229.47,374.82,242.62z"/>
			<g>
				<path class="st11" d="M368.87,326.57c0.18,3.6,0.32,6.07,0.32,6.42"/>
				<path class="st11" d="M381.13,252.96c0,0-12.75,32.55-13.02,45.03c-0.16,7.33,0.24,17.74,0.6,25.31"/>
				<path class="st11" d="M413.23,320.27c0.69,0.45,1.38,0.9,2.07,1.32"/>
				<path class="st11" d="M388.45,296.91c0,0,9.76,12.58,22.29,21.64"/>
				<path class="st11" d="M405,321.32c0,0,4.07,5.15,12.21,7.32"/>
			</g>
		</g>
		<g>
			<polygon class="st9" points="384.12,230.07 372.22,242.16 382.04,249.72 388.28,235.93 			"/>
			<path class="st9" d="M381.67,217.41c0,0,1.89,12.66,1.89,13.79s-1.51,18.51-1.51,18.51s10.96-8.31,13.41-10.58
				c2.46-2.27,14.74-15.68,14.74-15.68s0.38-7.18,0.57-11.52c0.19-4.35,0.57-14.55,0.57-14.55s-7.93,12.47-13.41,16.25
				C392.44,217.41,381.67,217.41,381.67,217.41z"/>
			<path class="st10" d="M402.4,212.26c0,0-4.2,8.4-9.33,13.3c-5.13,4.9-8.95,4.52-8.95,4.52l-2.01-9.18L402.4,212.26z"/>
			<g>
				<path class="st9" d="M367.43,164.91c0,0-0.52,31.98,1.3,36.4c1.82,4.42,7.28,16.12,10.4,18.2c3.12,2.08,11.7,2.86,15.6,1.3
					c3.9-1.56,10.14-8.58,13.78-14.04c3.64-5.46,3.9-12.74,3.9-12.74s7.54-1.82,9.62-4.68c2.08-2.86,3.64-10.66,0.52-12.48
					c-3.12-1.82-8.06,0.78-8.06,0.78s0.52-7.28-1.56-8.84c-2.08-1.56-4.94-5.2-5.2-7.02c-0.26-1.82-0.26-1.82-0.26-1.82
					s-9.1,3.38-17.94,4.68S367.43,164.91,367.43,164.91z"/>
				<path class="st11" d="M383.51,176.52c0,0,0.25,3.49,0.75,6.98c0.5,3.49-2.24,14.47-2.74,15.96c-0.5,1.5,3.74,2.24,8.23,0"/>
				<path class="st11" d="M385,205.95c0,0,8.23,1.5,13.22-4.99"/>
				<path class="st14" d="M374.01,175.71c0,0,3.68-2.86,7.35-1.23"/>
				<path class="st14" d="M392.12,175.03c0,0,5.17-1.91,9.12,1.91"/>
				<path class="st8" d="M381.54,184.15c0,1.5-0.64,2.72-1.43,2.72c-0.79,0-1.43-1.22-1.43-2.72c0-1.5,0.64-2.72,1.43-2.72
					C380.9,181.43,381.54,182.65,381.54,184.15z"/>
				<path class="st8" d="M397.79,184.7c0,1.5-0.64,2.72-1.43,2.72c-0.79,0-1.43-1.22-1.43-2.72s0.64-2.72,1.43-2.72
					C397.15,181.98,397.79,183.19,397.79,184.7z"/>
			</g>
			<g>
				<path class="st6" d="M377.3,134.24c0,0-19.5,10.14-20.8,15.08c-1.3,4.94,9.1,1.56,9.1,1.56s-13.52,7.54-13.52,11.96
					s12.74,4.16,26.78,4.42c14.04,0.26,28.86-5.46,28.86-5.46s-2.6,2.08,1.04,5.2c3.64,3.12,4.94,3.9,4.94,3.9l-0.78,8.32
					c0,0,2.34-1.82,4.42-2.08c2.08-0.26,2.08-0.26,2.08-0.26l1.04-9.62c0,0,6.5-2.08,4.42-15.6c-2.08-13.52-13.52-20.8-27.04-20.8
					S377.3,134.24,377.3,134.24z"/>
				<g>
					<path class="st11" d="M410.61,155.28c-3.58,2.56-9.52,5.46-18.52,6.13c-16.86,1.26-20.23-0.21-16.01-2.74
						c4.21-2.53,6.95-1.26,6.95-1.26"/>
					<path class="st11" d="M415.05,151.09c0,0-0.65,0.96-2.11,2.3"/>
					<path class="st11" d="M413.99,146.04c0,0-4.85,3.37-14.33,3.58"/>
				</g>
			</g>
			<polygon class="st9" points="411.33,218.36 383.93,244.62 393.95,257.28 417.18,225.73 			"/>
			<polygon class="st9" points="372.22,242.16 370.71,254.25 379.17,247.45 			"/>
			<polygon class="st9" points="383.93,244.62 382.04,249.72 386.59,247.54 			"/>
		</g>
		<path class="st9" d="M411.16,289.67l21.85,53.51c0,0,3.12-3.79,10.48-6.02c7.36-2.23,17.61-2.01,17.61-2.01
			s-10.7-30.1-10.03-36.79c0.67-6.69-2.45-30.32-2.45-30.32"/>
		<path class="st9" d="M466,351.65c0,0-5.63,9.63-13.38,15.83c-4.8,3.84-14.87,11.01-39.24,17.84c-3.47,0.97-10.7,2.23-12.04-0.67
			c-1.34-2.9,0.45-8.47,2.68-9.81c2.23-1.34,22.07-8.7,24.52-11.82c2.45-3.12,6.69-18.28,6.69-18.28s15.38-7.8,22.3-4.68
			C464.44,343.18,466.23,349.42,466,351.65z"/>
		<path class="st9" d="M428.32,346.97c0,0,3.79-10.7,15.38-13.82c11.59-3.12,16.5-4.46,18.06-2.68c1.56,1.78,5.8,11.59,6.47,14.94
			c0.67,3.34-2.23,6.24-2.23,6.24s-3.12-7.58-9.36-8.7c-6.24-1.11-19.62,5.8-23.19,7.36C429.89,351.87,428.32,346.97,428.32,346.97z
			"/>
		<g>
			<path class="st9" d="M345.5,339.16l1.26-2.32c0,0,14.76,4.22,22.77,5.69c8.01,1.48,17.08,3.58,20.24,5.06
				c3.16,1.48,6.54,5.9,6.54,5.9s1.05-5.69,7.17-7.59c6.11-1.9,33.31-11.81,35.84-12.86c2.53-1.05,3.58-1.48,3.58-1.48l0.82,1.57
				l-47.19,23.52L345.5,339.16z"/>
			<g>
				<polygon class="st6" points="345.5,339.16 348.03,370.57 396.51,378.8 396.3,353.5 				"/>
				<polygon class="st6" points="396.3,353.5 443.71,333.14 439.1,366.99 396.51,378.8 				"/>
			</g>
		</g>
		<g>
			<path class="st9" d="M408.95,378.63c0,0,3.02-4.32,3.45-6.19c0.43-1.87-1.01-5.9,0-8.34c1.01-2.45,1.87-5.47,4.03-7.05
				s3.31-3.74,0.14-3.74c-3.16,0-8.2,4.75-9.78,7.48c-1.58,2.73-2.59,4.89-5.32,5.9c-2.73,1.01-8.92,1.15-13.09-0.43
				c-4.17-1.58-16.83-7.19-19.85-8.63c-3.02-1.44-5.18-1.01-4.32,1.15c0.86,2.16,7.05,5.75,8.92,7.48c1.87,1.73,3.16,3.45,3.16,3.45
				s-5.03-1.29-10.21-3.31c-5.18-2.01-7.62-1.73-7.34,0.43c0.29,2.16,6.62,4.75,7.62,5.47c1.01,0.72,4.32,5.32,6.19,6.62
				c1.87,1.29,6.04,2.45,11.51,3.16c5.47,0.72,13.23,4.03,17.69,4.6c4.46,0.58,9.49-0.72,9.49-0.72"/>
			<path class="st11" d="M366.37,372.3c0,0,9.06,4.03,11.51,4.89c2.45,0.86,3.45,1.01,3.45,1.01"/>
		</g>
	</g>
</g>
</svg>
