<svg xmlns="http://www.w3.org/2000/svg" viewBox="0 0 705.41 401.74"><defs><style>.cls-1{fill:#263238;}.cls-2{fill:#455a64;}.cls-3{fill:#ebebeb;}.cls-4{fill:#fff;}.cls-5{fill:#ff725e;}.cls-6{fill:#ffbe9d;}.cls-7{fill:#eb996e;}.cls-8,.cls-9{opacity:0.3;}.cls-10{fill:#fafafa;}</style></defs><g id="Table"><path class="cls-1" d="M700.53,401.48c0,.14-156.83.26-350.25.26S0,401.62,0,401.48s156.8-.26,350.28-.26S700.53,401.34,700.53,401.48Z"/></g><g id="Device"><rect class="cls-2" x="114.73" y="86.9" width="465.06" height="307.54" rx="14.57"/><path class="cls-2" d="M99.51,374.57H603.36a0,0,0,0,1,0,0v9.11a17.8,17.8,0,0,1-17.8,17.8H117.3a17.8,17.8,0,0,1-17.8-17.8v-9.11A0,0,0,0,1,99.51,374.57Z"/><polygon class="cls-1" points="301.41 371.69 307.67 381.63 395.65 381.63 401.45 371.69 301.41 371.69"/><path class="cls-1" d="M575.79,371.69c0,.16-103.22.3-230.52.3s-230.54-.14-230.54-.3,103.2-.3,230.54-.3S575.79,371.52,575.79,371.69Z"/><rect class="cls-3" x="128.05" y="104.58" width="436.6" height="258.98" rx="3.27"/><polygon class="cls-4" points="564.18 363.94 127.58 363.94 128.05 123.94 564.18 123.94 564.18 363.94"/><path class="cls-1" d="M163.86,114.58a3.49,3.49,0,1,1-3.49-3.48A3.49,3.49,0,0,1,163.86,114.58Z"/><path class="cls-1" d="M142.72,114.58a3.49,3.49,0,1,1-3.48-3.48A3.48,3.48,0,0,1,142.72,114.58Z"/><path class="cls-1" d="M152.87,114.58a3.49,3.49,0,1,1-3.49-3.48A3.49,3.49,0,0,1,152.87,114.58Z"/><rect class="cls-1" x="127.58" y="340.76" width="437.07" height="23.18"/><path class="cls-4" d="M144.09,355v.74h-3.48v-.58l1.88-1.79c.46-.43.54-.71.54-1,0-.43-.3-.68-.88-.68a1.31,1.31,0,0,0-1.1.49l-.62-.47a2.18,2.18,0,0,1,1.8-.79c1,0,1.68.52,1.68,1.36a1.89,1.89,0,0,1-.78,1.49l-1.26,1.2Z"/><path class="cls-4" d="M144.57,352.69a.55.55,0,1,1,1.1,0,.55.55,0,1,1-1.1,0Zm0,2.57a.55.55,0,1,1,1.1,0,.55.55,0,1,1-1.1,0Z"/><path class="cls-4" d="M147.87,351.05v4.72H147v-4h-1v-.74Z"/><path class="cls-4" d="M153,354.7h-.84v1.07h-.85V354.7h-2.59v-.61l2.33-3H152L149.81,354h1.55V353h.82V354H153Z"/><rect class="cls-4" x="160.73" y="352.81" width="358.24" height="1.63"/><rect class="cls-5" x="160.46" y="351.05" width="111.95" height="4.36"/><path class="cls-5" d="M276,353.63a5.46,5.46,0,1,1-5.46-5.45A5.46,5.46,0,0,1,276,353.63Z"/><path class="cls-4" d="M528,353.58a1.57,1.57,0,0,1-1.73,1.53c-1.28,0-2-.83-2-2.35a2.23,2.23,0,0,1,2.31-2.51,2.35,2.35,0,0,1,1.24.3l-.32.67a1.61,1.61,0,0,0-.9-.23c-.89,0-1.45.55-1.45,1.62h0a1.63,1.63,0,0,1,1.26-.49A1.47,1.47,0,0,1,528,353.58Zm-.85,0c0-.5-.37-.81-.94-.81a.86.86,0,0,0-1,.81c0,.45.35.8,1,.8A.82.82,0,0,0,527.14,353.62Z"/><path class="cls-4" d="M528.42,352a.55.55,0,1,1,1.1,0,.55.55,0,1,1-1.1,0Zm0,2.57a.55.55,0,1,1,1.1,0,.55.55,0,1,1-1.1,0Z"/><path class="cls-4" d="M530.09,352.68c0-1.55.85-2.43,2-2.43s2,.88,2,2.43-.85,2.43-2,2.43S530.09,354.23,530.09,352.68Zm3.06,0c0-1.14-.44-1.67-1.09-1.67s-1.09.53-1.09,1.67.45,1.67,1.09,1.67S533.15,353.82,533.15,352.68Z"/><path class="cls-4" d="M534.62,352.68c0-1.55.85-2.43,2-2.43s2,.88,2,2.43-.85,2.43-2,2.43S534.62,354.23,534.62,352.68Zm3.06,0c0-1.14-.44-1.67-1.09-1.67s-1.08.53-1.08,1.67.44,1.67,1.08,1.67S537.68,353.82,537.68,352.68Z"/><polygon class="cls-4" points="546.2 352.39 544.56 352.39 544.56 347.68 549.26 347.68 549.26 349.31 546.2 349.31 546.2 352.39"/><polygon class="cls-4" points="549.27 358.53 544.56 358.53 544.56 353.83 546.19 353.83 546.19 356.9 549.27 356.9 549.27 358.53"/><polygon class="cls-4" points="556.76 358.53 552.07 358.53 552.07 356.9 555.13 356.9 555.13 353.82 556.76 353.82 556.76 358.53"/><polygon class="cls-4" points="556.77 352.38 555.14 352.38 555.14 349.31 552.06 349.31 552.06 347.68 556.77 347.68 556.77 352.38"/><polygon class="cls-3" points="187.45 138.21 161.72 138.21 148.85 160.49 161.72 182.78 187.45 182.78 200.32 160.49 187.45 138.21"/><path class="cls-1" d="M163.82,164.85a23.18,23.18,0,0,1-3.15-4,7.71,7.71,0,0,1-1.06-4.94c.16-1,.58-1.93.65-2.93.09-1.38-.49-2.82,0-4.11.77-2,3.48-2.33,5.13-3.72,1.28-1.09,1.91-2.85,3.32-3.76a6.25,6.25,0,0,1,4.27-.58,16.13,16.13,0,0,0,4.37.38,30.14,30.14,0,0,0,3-.81,4.12,4.12,0,0,1,3.05.21,2,2,0,0,1,.82,2.67c1.68-.78,3.83.53,4.29,2.33a5.06,5.06,0,0,1-1.89,4.93,11.1,11.1,0,0,1-5.1,2.08c-5.17,1-10.77.42-15.22-2.37"/><path class="cls-6" d="M187.68,170.35c-.17-3.19-1.07-9.72-1.94-15.63a12.34,12.34,0,0,0-13-10.5l-.64,0c-6.84.86-9.93,7.16-8.88,14l2,24.55H181.9s-.39-4.31-.39-4.35S188,177,187.68,170.35Z"/><path class="cls-7" d="M181.51,178.33a15.37,15.37,0,0,1-8.77-1.87s2.35,4.62,8.9,3.58Z"/><path class="cls-1" d="M183.61,160.38a.94.94,0,0,1-.84,1,.91.91,0,0,1-1-.78,1,1,0,0,1,.84-1A.91.91,0,0,1,183.61,160.38Z"/><path class="cls-1" d="M184.53,158c-.11.13-.85-.35-1.87-.28s-1.72.62-1.84.51.05-.28.35-.54a2.61,2.61,0,0,1,1.47-.56,2.54,2.54,0,0,1,1.5.37C184.47,157.76,184.59,158,184.53,158Z"/><path class="cls-1" d="M174,161.06a1,1,0,0,1-.85,1,.92.92,0,0,1-1-.79.94.94,0,0,1,.85-1A.91.91,0,0,1,174,161.06Z"/><path class="cls-1" d="M174.57,158.89c-.1.13-.85-.35-1.87-.28s-1.72.63-1.84.51,0-.28.36-.53a2.55,2.55,0,0,1,3-.19C174.51,158.62,174.63,158.83,174.57,158.89Z"/><path class="cls-1" d="M178.76,166.17a6.45,6.45,0,0,1,1.63-.41c.25,0,.5-.11.53-.29a1.32,1.32,0,0,0-.23-.76l-.89-1.92a33,33,0,0,1-2.07-5,33.88,33.88,0,0,1,2.47,4.86c.3.68.59,1.32.86,1.94a1.53,1.53,0,0,1,.21,1,.63.63,0,0,1-.41.4,1.55,1.55,0,0,1-.43.1A6.56,6.56,0,0,1,178.76,166.17Z"/><path class="cls-1" d="M174.57,154.9c-.08.28-1.1.22-2.28.44s-2.12.61-2.3.38.07-.39.44-.68a3.85,3.85,0,0,1,1.68-.71,3.76,3.76,0,0,1,1.81.09C174.37,154.56,174.6,154.77,174.57,154.9Z"/><path class="cls-1" d="M184,155.13c-.16.24-.87.05-1.72.09s-1.54.26-1.72,0,0-.35.32-.59a2.5,2.5,0,0,1,2.77-.1C183.92,154.78,184,155,184,155.13Z"/><path class="cls-6" d="M164.07,163.08c-.12,0-4.63-1-4.18,3.47s5.32,3,5.32,2.9S164.07,163.08,164.07,163.08Z"/><path class="cls-7" d="M163.21,168s-.07.07-.2.14a.81.81,0,0,1-.58.07,1.93,1.93,0,0,1-1.07-1.65,2.56,2.56,0,0,1,.1-1.15.93.93,0,0,1,.54-.66.4.4,0,0,1,.48.17c.07.12.05.21.08.22s.09-.09,0-.27a.49.49,0,0,0-.2-.26.57.57,0,0,0-.45-.07,1.1,1.1,0,0,0-.75.77,2.74,2.74,0,0,0-.15,1.29,2.06,2.06,0,0,0,1.34,1.83.86.86,0,0,0,.71-.19C163.21,168.08,163.23,168,163.21,168Z"/><path class="cls-1" d="M185.4,148.55c-.31,1.79-3.94,3.43-7,3.35-2.78-.08-4.15-1.46-6.17-2.44-1.28-.62-1.28-.62-3-.34-1.4.23-2.13,1.88-2.92,3.06,1.5,3.27.9,7.07.26,10.61a1.82,1.82,0,0,1-.45,1.08,1.43,1.43,0,0,1-1.83-.28,5.55,5.55,0,0,1-1.42-2.86,18.65,18.65,0,0,1-.45-7.32,12.69,12.69,0,0,1,3.05-6.61,12,12,0,0,1,8.19-3.74,14.85,14.85,0,0,1,8.73,2.48,8.59,8.59,0,0,1,3,3"/><path class="cls-7" d="M179.42,168.45l-2.29-1.07a.91.91,0,0,0-.42-.11.78.78,0,0,0-.4.27,2.15,2.15,0,0,0-.25,2.35,1.78,1.78,0,0,0,2.15.79,2.44,2.44,0,0,0,1.28-2.16Z"/><path class="cls-1" d="M178.28,170.84s-.47.37-1.34.12a2,2,0,0,1-1.19-1,2.19,2.19,0,0,1-.15-1.88,2.32,2.32,0,0,1,.55-.84,2.82,2.82,0,0,1,.39-.29.69.69,0,0,1,.61,0c.52.3.88.54,1.23.77.67.45,1.07.75,1,.82a3.66,3.66,0,0,1-1.22-.5L177,167.4c-.1,0-.09,0-.18,0a1.49,1.49,0,0,0-.28.23,1.94,1.94,0,0,0-.43.65,1.78,1.78,0,0,0,.09,1.47,1.84,1.84,0,0,0,.9.85A4.35,4.35,0,0,0,178.28,170.84Z"/><path class="cls-1" d="M177.56,160.49c-.05,0,0-.42-.25-1.12a4.62,4.62,0,0,0-1.72-2.47,4.48,4.48,0,1,0,0,7.18,4.6,4.6,0,0,0,1.72-2.46c.21-.71.2-1.13.25-1.13s0,.1,0,.3a3.47,3.47,0,0,1-.09.87,4.68,4.68,0,0,1-1.7,2.72,4.87,4.87,0,0,1-4.64.75,4.92,4.92,0,0,1,0-9.28,4.84,4.84,0,0,1,4.64.76,4.63,4.63,0,0,1,1.7,2.71,3.47,3.47,0,0,1,.09.87C177.59,160.39,177.58,160.49,177.56,160.49Z"/><path class="cls-1" d="M188.79,160.05s0-.41-.24-1.09a4.53,4.53,0,0,0-1.68-2.41,4.36,4.36,0,1,0,0,7,4.53,4.53,0,0,0,1.68-2.41c.2-.68.19-1.09.24-1.09s0,.1,0,.3a3.66,3.66,0,0,1-.08.84,4.58,4.58,0,0,1-1.66,2.65,4.74,4.74,0,0,1-4.52.74,4.81,4.81,0,0,1,0-9.06,4.74,4.74,0,0,1,4.52.74,4.63,4.63,0,0,1,1.66,2.65,3.66,3.66,0,0,1,.08.84C188.82,160,188.81,160.05,188.79,160.05Z"/><path class="cls-1" d="M179.63,159c-.11.1-.55-.19-1.15-.17s-1,.31-1.14.21.28-.72,1.13-.73S179.76,158.93,179.63,159Z"/><path class="cls-1" d="M168.44,159.82c.08.12-.79.92-1.95,1.78a7.18,7.18,0,0,1-2.26,1.37c-.09-.12.78-.91,2-1.78A7,7,0,0,1,168.44,159.82Z"/><path class="cls-1" d="M261.25,160.26c0,.15-11.56.27-25.83.27s-25.84-.12-25.84-.27,11.57-.26,25.84-.26S261.25,160.12,261.25,160.26Z"/><path class="cls-1" d="M237.36,165.67c0,.15-6.15.26-13.72.26s-13.72-.11-13.72-.26,6.14-.26,13.72-.26S237.36,165.53,237.36,165.67Z"/></g><g id="Character"><path class="cls-5" d="M416.06,200.22a39.38,39.38,0,0,1,18.56,24c4.82,17.28,19.59,62.28,19.59,62.28s8.44,9.93,9.35,17.28-.91,25.14-3.62,28.46a7.64,7.64,0,0,1-6.58,2.76l-35.53-3.37-14-93.67Z"/><path class="cls-5" d="M298.57,198.58s-25.4,8-31.73,14.9l20.8,96.77-.33,30.53H407.75c0-1.5,1.08-101.37,1.08-101.37l7.23-39.19-42.81-7.54-8.44-6.63-47.63,2.41L310,195.7Z"/><g class="cls-8"><path d="M308.22,282.53c-.37-.82-.9-1.7-1.78-1.89-1.45-.3-2.42,1.42-2.92,2.82a127,127,0,0,1-15.82,30.89l-.31,14.86c7-5.91,13.95-12.24,18.42-20.25S312,290.9,308.22,282.53Z"/></g><path class="cls-5" d="M266.84,213.48s-8.37,11.41-11.85,18.86-32.27,70-34,76.47-6.21,26.82,7,31.53H255l27.17-54.92,1.39-63.75Z"/><path class="cls-1" d="M256.73,300.67s-.61-.53-1.85-1.24a20.81,20.81,0,0,0-5.68-2.06,26.14,26.14,0,0,0-4.14-.58,16.15,16.15,0,0,0-4.75.31,17.67,17.67,0,0,0-9.11,5.72,24.64,24.64,0,0,0-5.16,9.59,47.8,47.8,0,0,0-1.63,8.85c-.25,2.56-.34,4.64-.43,6.08,0,.67-.08,1.22-.11,1.66a2.45,2.45,0,0,1-.07.58,2.17,2.17,0,0,1,0-.58v-1.67c0-1.44.07-3.53.28-6.1a45.3,45.3,0,0,1,1.53-9,24.75,24.75,0,0,1,5.23-9.8,18,18,0,0,1,9.4-5.84,16.33,16.33,0,0,1,4.88-.27,26.33,26.33,0,0,1,4.19.65,19.46,19.46,0,0,1,5.7,2.24,9.18,9.18,0,0,1,1.34,1C256.6,300.51,256.74,300.65,256.73,300.67Z"/><path class="cls-1" d="M243.89,289.73a3.64,3.64,0,0,1,.91-.14,15,15,0,0,1,2.51,0,21,21,0,0,1,3.7.55,24,24,0,0,1,4.31,1.52,24.64,24.64,0,0,1,3.9,2.39,20.39,20.39,0,0,1,2.74,2.53,16.44,16.44,0,0,1,1.56,2,4,4,0,0,1,.46.8c-.08.06-.82-1-2.28-2.52a23.57,23.57,0,0,0-2.77-2.39,23.32,23.32,0,0,0-8-3.84,24.17,24.17,0,0,0-3.6-.64C245.21,289.72,243.9,289.83,243.89,289.73Z"/><path class="cls-1" d="M268.36,286.72a5.58,5.58,0,0,1-1.25-.09c-.8-.11-2-.22-3.39-.33A57.94,57.94,0,0,0,241.58,289c-1.36.44-2.46.83-3.21,1.11a5.44,5.44,0,0,1-1.2.39,6.86,6.86,0,0,1,1.12-.57c.73-.35,1.82-.79,3.18-1.28a51.21,51.21,0,0,1,22.28-2.67c1.44.16,2.6.33,3.39.5A5.91,5.91,0,0,1,268.36,286.72Z"/><path class="cls-1" d="M345.44,233.27a3,3,0,0,1-.27-.33l-.74-1-2.72-3.77c-2.34-3.29-5.6-7.89-9.43-13.3l.42-.06c-1.46,4.29-3.06,9-4.76,14l-.1.32-.28-.18-.56-.36a29.14,29.14,0,0,1-5.89-5,35.06,35.06,0,0,1-4.21-5.82,48.5,48.5,0,0,1-4.63-11.2,74.77,74.77,0,0,1-1.75-8c-.16-.91-.29-1.63-.38-2.18-.05-.25-.1-.43-.13-.56a.74.74,0,0,1-.06-.18,9.22,9.22,0,0,1,.77,2.88c.39,1.89.93,4.62,1.9,7.91a50.54,50.54,0,0,0,4.69,11.06,35.26,35.26,0,0,0,4.18,5.71,28.1,28.1,0,0,0,5.79,4.88l.55.36-.38.13c1.71-5,3.33-9.68,4.8-14l.16-.45.26.39c3.77,5.45,7,10.08,9.27,13.41l2.61,3.84.68,1A1.54,1.54,0,0,1,345.44,233.27Z"/><g class="cls-8"><path d="M376.8,279.46a54.62,54.62,0,0,0,7,32.45c5.6,9.75,13.81,18.44,24,23.1.33-9.93-.14-21.63.19-31.56Z"/></g><path class="cls-6" d="M375.67,266.39s-4.38,1.21-1.1,10.17,4.38,8.42,6.56,16.81,4.74,16,8.57,20.77,18.05,14.4,18.05,14.4l12.76-12s-2.11-9-1.6-15.05,1.78-21,1.6-23.59-2.92-8.75-2.92-8.75v-4.24L411,244.7s-3.65-1.65-4.92,4.19l-2.19-6.19s-3.46-.56-4.38,6.55.73,16.95.73,16.95l-1.82,12.4L395.72,287l-2.37.37s-3.57-1-5.52-7.69S380.59,264.93,375.67,266.39Z"/><path class="cls-7" d="M416.23,298.09a2.66,2.66,0,0,1-.06-.46c0-.35-.05-.79-.09-1.33-.06-1.23-.15-2.92-.27-5-.19-4.36-.47-10.41-.79-17.48l.06.14a2.55,2.55,0,0,0-2.58-.67,3.8,3.8,0,0,0-2.37,1.73c-1.11,1.8-1.17,4.13-1.52,6.39-.69,5.11-1.35,10-1.95,14.41-.31,2.21-.63,4.32-1.06,6.27a41.66,41.66,0,0,1-1.58,5.32c-.56,1.59-1.06,3-1.37,4.33a13,13,0,0,0-.41,3.37,10.29,10.29,0,0,0,.5,2.86,3.79,3.79,0,0,1-.31-.7,7.9,7.9,0,0,1-.4-2.15,13.16,13.16,0,0,1,.33-3.45,43.63,43.63,0,0,1,1.31-4.38,42.45,42.45,0,0,0,1.51-5.29c.41-1.94.71-4,1-6.25.59-4.43,1.24-9.3,1.91-14.41.16-1.14.29-2.26.49-3.39a8.93,8.93,0,0,1,1.12-3.2,4.31,4.31,0,0,1,2.68-2,3,3,0,0,1,3.07.85l.06.07v.08c.24,7.07.45,13.13.6,17.48.06,2.11.1,3.81.13,5,0,.55,0,1,0,1.34A1.38,1.38,0,0,1,416.23,298.09Z"/><path class="cls-7" d="M409.26,275.12a5.06,5.06,0,0,1-.54-1.14,27.9,27.9,0,0,1-1.07-3.27,32,32,0,0,1-.91-5,14.56,14.56,0,0,1-.06-3,6.49,6.49,0,0,1,1.1-3.13,4.48,4.48,0,0,1,2.33-1.75l.2-.06.1.18c1.85,3.26,3.45,6.14,4.58,8.21l1.31,2.44a4.12,4.12,0,0,1,.42.92,3.75,3.75,0,0,1-.58-.83l-1.44-2.37c-1.21-2-2.87-4.87-4.74-8.12l.3.12a4,4,0,0,0-2.05,1.56,6,6,0,0,0-1,2.88,14.51,14.51,0,0,0,0,2.95,37.25,37.25,0,0,0,.8,5c.32,1.41.66,2.52.9,3.29A8.47,8.47,0,0,1,409.26,275.12Z"/><path class="cls-7" d="M406.21,276.76a4.55,4.55,0,0,1-.12-1.16c0-.86-.08-1.92-.13-3.17-.09-2.68-.17-6.38-.23-10.47a90.59,90.59,0,0,1,.16-10.49,16.5,16.5,0,0,1,.69-3.13,3.64,3.64,0,0,1,.47-1.07,29.32,29.32,0,0,0-.79,4.23c-.25,2.65,0,6.36,0,10.45s.09,7.79.08,10.47c0,1.26,0,2.32,0,3.18A5.64,5.64,0,0,1,406.21,276.76Z"/><path class="cls-7" d="M395.42,310.37c-.08-.06.72-1,1.71-2.7a23.35,23.35,0,0,0,1.49-3.11,24.64,24.64,0,0,0,1.13-4.06,24.32,24.32,0,0,0,.36-4.2,22.14,22.14,0,0,0-.31-3.44c-.32-1.94-.74-3.1-.65-3.13a3,3,0,0,1,.36.79,15.77,15.77,0,0,1,.66,2.27,20.59,20.59,0,0,1,.42,3.5,23.33,23.33,0,0,1-.32,4.3,22.94,22.94,0,0,1-1.21,4.14,19.25,19.25,0,0,1-1.61,3.13,15.3,15.3,0,0,1-1.41,1.9C395.66,310.18,395.45,310.4,395.42,310.37Z"/><path class="cls-6" d="M417.82,304.1,428.89,308s10.57-5.47,17.86,0,13.63,19.88,11.62,25.71c0,0-5,6.21-8.86,7.12s-18.71-2.69-24.9-4-16.86-8.25-16.86-8.25Z"/><path class="cls-7" d="M419.18,320.42a3.31,3.31,0,0,1-.12-1c0-.75-.1-1.64-.16-2.68-.11-2.26-.27-5.38-.31-8.84a85.19,85.19,0,0,1,.25-8.85c.1-1.13.22-2.05.34-2.67a3.09,3.09,0,0,1,.23-1c.08,0-.09,1.4-.2,3.65s-.15,5.38-.1,8.82.12,6.44.16,8.84c0,1.13,0,2.05,0,2.68A4.13,4.13,0,0,1,419.18,320.42Z"/><path class="cls-1" d="M455.69,307.51a35.23,35.23,0,0,0-3.68-3.32A20.26,20.26,0,0,0,429.56,303a34.46,34.46,0,0,0-4,2.9,5.39,5.39,0,0,1,.91-1,18.18,18.18,0,0,1,2.92-2.22,19.88,19.88,0,0,1,22.86,1.26,17.55,17.55,0,0,1,2.66,2.53A5.47,5.47,0,0,1,455.69,307.51Z"/><path class="cls-1" d="M454.27,298.28a21.56,21.56,0,0,0-4.61-2.54,20.44,20.44,0,0,0-12.47-.38,29,29,0,0,0-6.44,2.69,30.59,30.59,0,0,0-4.67,3.3c-1.24,1.06-2.19,2-2.85,2.63a7.75,7.75,0,0,1-1,1,7.78,7.78,0,0,1,.9-1.11,34.57,34.57,0,0,1,2.75-2.77,27.61,27.61,0,0,1,11.21-6.21,20,20,0,0,1,12.74.54,14.56,14.56,0,0,1,3.41,1.92,8,8,0,0,1,.81.69C454.19,298.17,454.28,298.27,454.27,298.28Z"/><path class="cls-1" d="M454.36,290.28c0,.1-2-.49-5.18-.93a42.4,42.4,0,0,0-5.68-.36,45.71,45.71,0,0,0-6.92.63,45,45,0,0,0-6.73,1.78,41.39,41.39,0,0,0-5.21,2.27c-2.88,1.51-4.5,2.73-4.56,2.64a8.2,8.2,0,0,1,1.11-.89c.37-.27.82-.6,1.38-.94s1.16-.76,1.89-1.13a37,37,0,0,1,5.22-2.4,42.3,42.3,0,0,1,6.81-1.85,43,43,0,0,1,7-.59,37.12,37.12,0,0,1,5.73.48c.82.1,1.54.29,2.17.42s1.18.28,1.61.41A6.64,6.64,0,0,1,454.36,290.28Z"/><path class="cls-1" d="M369.52,192.35a9.12,9.12,0,0,1,.77,3,28.63,28.63,0,0,1-.42,8.59,50.58,50.58,0,0,1-1.43,6,45.76,45.76,0,0,1-2.91,6.66c-2.38,4.59-5.38,9.61-8.86,15l-.41.62v-.75c0-3.53,0-7.24,0-11.09l.39.18L347.3,228l.08-.12a98.34,98.34,0,0,0-4.16,22.45c-.91,12.17-.17,23.81.4,34.37s.81,20.1,1.14,28.1.61,14.46.85,18.93c.13,2.21.23,3.94.31,5.14,0,.57.06,1,.08,1.34s0,.46,0,.46,0-.16-.07-.46-.08-.76-.14-1.33c-.11-1.17-.25-2.91-.4-5.14-.3-4.47-.65-10.93-1-18.93s-.79-17.52-1.26-28.08-1.35-22.22-.44-34.44a98.32,98.32,0,0,1,4.2-22.56l0-.07.06-.05,9.36-7.52.38-.31v.5c0,3.85,0,7.56,0,11.09l-.41-.12c6.87-10.65,12.46-19.91,13.32-27.4a29.79,29.79,0,0,0,.54-8.53,15.07,15.07,0,0,0-.41-2.21C369.59,192.61,369.52,192.35,369.52,192.35Z"/><path class="cls-4" d="M351.59,321.35h-.36a2.8,2.8,0,1,0,.36,0Z"/><path class="cls-4" d="M351.59,282.81l-.36,0a2.88,2.88,0,1,0,.36,0Z"/><path class="cls-4" d="M351.21,248.33a2.82,2.82,0,0,0,.38-5.63h-.36a2.82,2.82,0,0,0,0,5.64Z"/><path class="cls-1" d="M308,147.19c-3.51-3.88-7-7.8-9.6-12.37s-4.08-9.89-3.23-15c.49-3,1.78-5.89,2-8.94.28-4.2-1.49-8.59,0-12.53,2.33-6.15,10.61-7.1,15.63-11.35,3.91-3.31,5.82-8.68,10.12-11.47,3.76-2.43,8.58-2.38,13-1.75s8.89,1.75,13.32,1.15c3.16-.43,6.14-1.7,9.24-2.47s6.55-1,9.31.63,4.31,5.52,2.5,8.15c5.14-2.37,11.67,1.64,13.08,7.12s-1.41,11.41-5.77,15-10,5.3-15.55,6.35c-15.75,3-32.83,1.29-46.4-7.23"/><path class="cls-6" d="M363.4,200.14c-.77-6-1.39-10.94-1.43-11.55,0,0,19.92-4.48,18.82-24.63-.53-9.73-3.26-29.69-5.93-47.72a37.59,37.59,0,0,0-39.69-32l-1.94.13C312.37,87,303,106.22,306.15,127l11.25,69.67s4.81,15.41,15.08,18.08l13,18.52,2.15-8,9.66-8.41a37.79,37.79,0,0,0,4.76-7.09A15.42,15.42,0,0,0,363.4,200.14Z"/><path class="cls-7" d="M362,188.29s-12.65,1.89-26.74-5.7c0,0,7.17,14.07,27.14,10.91Z"/><path class="cls-1" d="M368.39,133.55a2.88,2.88,0,0,1-2.58,3.08,2.76,2.76,0,0,1-3.14-2.39,2.89,2.89,0,0,1,2.58-3.09A2.76,2.76,0,0,1,368.39,133.55Z"/><path class="cls-1" d="M371.2,126.41c-.33.39-2.62-1.07-5.71-.86s-5.26,1.92-5.62,1.56c-.17-.16.14-.86,1.08-1.64a7.93,7.93,0,0,1,4.47-1.71A7.58,7.58,0,0,1,370,124.9C371,125.57,371.36,126.23,371.2,126.41Z"/><path class="cls-1" d="M339.17,135.64a2.88,2.88,0,0,1-2.58,3.08,2.77,2.77,0,0,1-3.14-2.39,2.89,2.89,0,0,1,2.58-3.09A2.76,2.76,0,0,1,339.17,135.64Z"/><path class="cls-1" d="M340.83,129c-.33.4-2.62-1.07-5.71-.86s-5.25,1.92-5.61,1.56c-.18-.15.13-.85,1.08-1.64a7.9,7.9,0,0,1,4.46-1.71,7.62,7.62,0,0,1,4.58,1.14C340.63,128.18,341,128.84,340.83,129Z"/><path class="cls-1" d="M353.59,151.2c0-.17,1.88-.63,5-1.24.79-.13,1.53-.34,1.62-.89a4,4,0,0,0-.68-2.3c-.87-1.86-1.78-3.82-2.74-5.86-3.81-8.35-6.63-15.23-6.3-15.38s3.71,6.49,7.52,14.84c.93,2.06,1.81,4,2.65,5.9a4.52,4.52,0,0,1,.61,3.07,2,2,0,0,1-1.22,1.24,5.29,5.29,0,0,1-1.33.28C355.56,151.23,353.62,151.38,353.59,151.2Z"/><path class="cls-1" d="M340.82,116.84c-.25.86-3.36.67-7,1.35s-6.47,1.87-7,1.15c-.24-.35.22-1.18,1.34-2.07a12.31,12.31,0,0,1,10.64-1.9C340.21,115.82,340.92,116.43,340.82,116.84Z"/><path class="cls-1" d="M369.46,117.53c-.5.74-2.68.15-5.24.29s-4.7.79-5.25.09c-.24-.35,0-1.07,1-1.8a7.57,7.57,0,0,1,8.45-.3C369.33,116.47,369.68,117.17,369.46,117.53Z"/><path class="cls-6" d="M308.79,141.79c-.35-.13-14.1-3.17-12.74,10.56s16.24,9.26,16.22,8.86S308.79,141.79,308.79,141.79Z"/><path class="cls-7" d="M306.19,156.71c-.07,0-.23.19-.61.41a2.44,2.44,0,0,1-1.79.22c-1.5-.39-3-2.58-3.26-5a7.83,7.83,0,0,1,.33-3.49,2.77,2.77,0,0,1,1.62-2,1.21,1.21,0,0,1,1.47.52c.22.36.16.65.24.66s.27-.26.1-.81a1.48,1.48,0,0,0-.62-.81,1.82,1.82,0,0,0-1.36-.22,3.39,3.39,0,0,0-2.29,2.38,8.36,8.36,0,0,0-.45,3.91c.37,2.75,2,5.2,4.08,5.58a2.54,2.54,0,0,0,2.15-.58C306.19,157,306.24,156.73,306.19,156.71Z"/><path class="cls-1" d="M373.85,97.48c-.94,5.46-12,10.47-21.22,10.2-8.47-.24-12.66-4.45-18.82-7.43-3.89-1.9-3.89-1.9-9.18-1-4.28.7-6.5,5.74-8.9,9.35,4.58,10,2.73,21.56.79,32.35a5.46,5.46,0,0,1-1.39,3.29c-1.54,1.36-4.05.54-5.56-.85-2.43-2.22-3.54-5.52-4.34-8.72a56.86,56.86,0,0,1-1.36-22.33,38.6,38.6,0,0,1,9.29-20.16,36.59,36.59,0,0,1,25-11.39,45,45,0,0,1,26.63,7.56c3.64,2.38,7,5.33,9.1,9.17"/><path class="cls-7" d="M355.61,158.16l-7-3.26a2.47,2.47,0,0,0-1.28-.33,2.06,2.06,0,0,0-1.21.83,6.5,6.5,0,0,0-.77,7.15,5.45,5.45,0,0,0,6.56,2.41c2.49-1,3.69-3.9,3.88-6.58Z"/><path class="cls-1" d="M352.14,165.46c0,.06-.32.26-1,.41a6.18,6.18,0,0,1-3-.22,6.35,6.35,0,0,1-3.48-2.89,6.43,6.43,0,0,1-.42-5.52,6.69,6.69,0,0,1,1.62-2.45,6.43,6.43,0,0,1,1.14-.86,1.89,1.89,0,0,1,.8-.26,2.07,2.07,0,0,1,.82.16c.45.21.75.43,1.09.62l.95.59,1.7,1.06c2.08,1.32,3.33,2.2,3.26,2.32s-1.46-.53-3.63-1.68l-1.76-1-1-.54a10.74,10.74,0,0,0-1-.52.76.76,0,0,0-.77.07,5.67,5.67,0,0,0-.92.73,6,6,0,0,0-1.36,2.09,5.68,5.68,0,0,0,.29,4.69,5.8,5.8,0,0,0,2.9,2.66,6.8,6.8,0,0,0,2.71.5C351.74,165.45,352.12,165.38,352.14,165.46Z"/><path class="cls-1" d="M349.94,133.89a26.48,26.48,0,0,0-.55-3.47,14.28,14.28,0,0,0-5.23-7.78,14.12,14.12,0,0,0-13.37-2,14.11,14.11,0,0,0-6.54,4.92,14.06,14.06,0,0,0,0,16.65,14.18,14.18,0,0,0,6.54,4.91,14.22,14.22,0,0,0,18.6-9.76,26.46,26.46,0,0,0,.55-3.48,2.17,2.17,0,0,1,0,.24c0,.18,0,.41,0,.68a6,6,0,0,1-.09,1.11,9.87,9.87,0,0,1-.26,1.5,13.6,13.6,0,0,1-1.56,3.87,14.18,14.18,0,0,1-3.65,4.15,14.44,14.44,0,0,1-6.1,2.75,14.67,14.67,0,0,1-7.65-.6,14.62,14.62,0,0,1-6.79-5.07,14.52,14.52,0,0,1,0-17.25,14.44,14.44,0,0,1,6.79-5.07,14.57,14.57,0,0,1,7.65-.61A14.51,14.51,0,0,1,348,126.5a13.38,13.38,0,0,1,1.56,3.87,9.76,9.76,0,0,1,.26,1.49,6,6,0,0,1,.09,1.12c0,.27,0,.49,0,.68A2.07,2.07,0,0,1,349.94,133.89Z"/><path class="cls-1" d="M384.18,132.55a24.48,24.48,0,0,0-.53-3.39,13.9,13.9,0,0,0-5.1-7.57,13.68,13.68,0,0,0-5.8-2.56,13.89,13.89,0,0,0-7.22.62,12.72,12.72,0,0,0-3.47,1.87,13,13,0,0,0-2.9,2.92,13.68,13.68,0,0,0,0,16.21,13,13,0,0,0,2.9,2.92,12.72,12.72,0,0,0,3.47,1.87,13.73,13.73,0,0,0,13-1.93,14,14,0,0,0,5.1-7.58,24.74,24.74,0,0,0,.53-3.38,5.44,5.44,0,0,1,0,.89,6.59,6.59,0,0,1-.09,1.08,9.24,9.24,0,0,1-.26,1.46,14.06,14.06,0,0,1-11,10.5,14.15,14.15,0,0,1-7.46-.58,14.23,14.23,0,0,1-6.62-4.94,14.11,14.11,0,0,1,0-16.82,13.48,13.48,0,0,1,3-3,13.23,13.23,0,0,1,3.61-1.92,14.26,14.26,0,0,1,7.46-.59,14.11,14.11,0,0,1,5.94,2.68,13.86,13.86,0,0,1,5.07,7.82,9.24,9.24,0,0,1,.26,1.46,6.68,6.68,0,0,1,.09,1.08A5.62,5.62,0,0,1,384.18,132.55Z"/><path class="cls-1" d="M356.24,129.38c-.06.06-.39-.22-1-.5a5.66,5.66,0,0,0-2.52-.56,5.74,5.74,0,0,0-2.49.64c-.6.31-.92.61-1,.55s.19-.44.78-.86a4.94,4.94,0,0,1,5.39-.1C356,129,356.28,129.34,356.24,129.38Z"/><path class="cls-1" d="M322.12,131.86a62.7,62.7,0,0,1-6.27,5,60.39,60.39,0,0,1-6.57,4.58,63.22,63.22,0,0,1,6.26-5A61,61,0,0,1,322.12,131.86Z"/><g class="cls-8"><path d="M310.29,196.94c-1.39,13.57,3.77,27.9,14.65,36.12.86.65,1.93,1.29,2.94.92a3.21,3.21,0,0,0,1.51-1.57A26.43,26.43,0,0,0,332.64,215c-1.72,4.54-3.2,9-4.94,13.74C318.21,223,312.3,210.72,310.29,196.94Z"/></g><path class="cls-9" d="M347.14,227.8l8-2.92,1.33,13.51s8.62-15.71,12.18-22.88,1.74-19.81,1.74-19.81,1.27,11-7.37,25.07l-6.51,10.59V220.27Z"/><g class="cls-8"><path d="M254.22,296.46A21.33,21.33,0,0,0,242.65,295a22.35,22.35,0,0,0-11.52,4.36c-3.24,2.62-5.43,6.73-5,10.87l.4.06c2.79-7.54,8.33-13,15.48-13.7s14.12,2.52,19,7.76C260.53,300.44,257.78,298.14,254.22,296.46Z"/></g><g class="cls-8"><path d="M456.21,304.17a18.34,18.34,0,0,0-10.32-5.32,23.23,23.23,0,0,0-19.25,5.57l1.53-1.23A24.19,24.19,0,0,1,441,299.71a18.49,18.49,0,0,1,12.22,4.88c3,2.84,4.78,6.68,6.49,10.43A13.08,13.08,0,0,0,456.21,304.17Z"/></g><path class="cls-1" d="M404.72,241.43a4,4,0,0,1,.36-1.09c.3-.79.68-1.76,1.13-2.91,1-2.45,2.3-5.84,3.7-9.6s2.61-7.2,3.48-9.69c.41-1.16.75-2.14,1-2.94a4.59,4.59,0,0,1,.44-1.06,5.46,5.46,0,0,1-.25,1.12c-.19.71-.49,1.74-.88,3-.78,2.52-1.94,6-3.34,9.75s-2.79,7.14-3.85,9.56c-.53,1.21-1,2.18-1.29,2.85A5.64,5.64,0,0,1,404.72,241.43Z"/><path class="cls-1" d="M278.65,242.41c-.14,0-1.23-4.73-2.43-10.63s-2.06-10.7-1.92-10.73,1.23,4.73,2.43,10.63S278.79,242.38,278.65,242.41Z"/><path class="cls-6" d="M276.76,301.9c.32.15-3.66-31.17-3.66-31.17S275.61,247,277,245.86l0-8.38s3.88-2.36,4.93,1.45c0,0,3.44-3,4.05,4.13s.73,14.4.73,14.4l7.67,19.19,1.26.64s1.65-15,2.61-17.24,1.61-7.59,5.25-6.79,3.94,3.82,3.29,8.72-1.47,10-1.17,13.13,1.74,10.14,1.3,15.68-3.47,11.38-6.66,15.48-9.26,12.58-12.56,15.14C286.6,322.3,276.76,301.9,276.76,301.9Z"/><path class="cls-7" d="M280.63,276.41a8.09,8.09,0,0,1,0-1.34c.07-1,.15-2.19.25-3.64.24-3.07.6-7.31,1-12,.22-2.33.43-4.55.62-6.59a12.27,12.27,0,0,0,0-2.83,4.1,4.1,0,0,0-1-2.16,4.31,4.31,0,0,0-3.13-1.38,9.57,9.57,0,0,0-1.31.17s.1-.07.31-.16a3.55,3.55,0,0,1,1-.21,4.4,4.4,0,0,1,3.41,1.33A4.35,4.35,0,0,1,283,250a11.54,11.54,0,0,1,0,2.94c-.18,2-.38,4.26-.59,6.6-.42,4.68-.84,8.91-1.17,12l-.41,3.62A6.07,6.07,0,0,1,280.63,276.41Z"/><path class="cls-7" d="M284.76,263.6a10.43,10.43,0,0,0-1.36,2.47,42.18,42.18,0,0,0-1.28,6.76c-.41,2.68-.81,5.1-1.13,6.84a16.41,16.41,0,0,1-.62,2.82,15.52,15.52,0,0,1,.26-2.87c.22-1.76.57-4.19,1-6.87a31.66,31.66,0,0,1,1.45-6.81,6.42,6.42,0,0,1,1.1-1.83C284.5,263.73,284.74,263.58,284.76,263.6Z"/><path class="cls-7" d="M281.94,238.51a4.14,4.14,0,0,1,.26,1c.15.64.32,1.57.51,2.73.38,2.31.8,5.52,1.07,9.09s.32,6.8.28,9.14c0,1.18-.06,2.12-.1,2.78a4,4,0,0,1-.12,1,30.72,30.72,0,0,1-.15-3.78c-.06-2.34-.17-5.56-.43-9.12s-.63-6.75-.92-9.07A32.79,32.79,0,0,1,281.94,238.51Z"/><path class="cls-7" d="M304.07,267.88a2.8,2.8,0,0,1-2.58.22c-1.47-.44-2.16-1.57-2-1.63a15.28,15.28,0,0,0,2.18,1.13A14.61,14.61,0,0,0,304.07,267.88Z"/><path class="cls-6" d="M277.19,298l-20.27,8.52H244.85s-11.95,3.73-13.79,14.92-2.1,17,3.16,18.35,20.08,1.53,27.43-.9,26.6-18,26.6-18l1.86-11.24Z"/><path class="cls-7" d="M281.94,310.37s-.23-.16-.58-.52a12.88,12.88,0,0,1-1.31-1.68,22.89,22.89,0,0,1-2.84-6.41,37.83,37.83,0,0,1-1.24-6.89,12.17,12.17,0,0,1-.08-2.89,21.4,21.4,0,0,1,.44,2.85,50.94,50.94,0,0,0,1.39,6.79,26.38,26.38,0,0,0,2.64,6.35C281.27,309.49,282,310.31,281.94,310.37Z"/><path class="cls-7" d="M290.76,313.93a20.66,20.66,0,0,0,1.16-4.35,14,14,0,0,0-2.73-10.17c-1.23-1.72-2.61-3.23-3.78-4.68a22,22,0,0,1-2.74-4.14,10.63,10.63,0,0,1-1-3.2,3.74,3.74,0,0,1,0-1.23,13.86,13.86,0,0,0,1.38,4.26,23.6,23.6,0,0,0,2.78,4c1.18,1.42,2.58,2.92,3.84,4.68a14.67,14.67,0,0,1,2.53,5.54,14.11,14.11,0,0,1,.13,5,12.82,12.82,0,0,1-.93,3.22,5.57,5.57,0,0,1-.41.82C290.84,313.85,290.78,313.94,290.76,313.93Z"/><path class="cls-4" d="M259.52,265.12a98.75,98.75,0,0,1-4.94-9,100.34,100.34,0,0,1-4.48-9.23,101.59,101.59,0,0,1,4.94,9C257.64,260.93,259.64,265.06,259.52,265.12Z"/><path class="cls-4" d="M292.3,228.63a61.19,61.19,0,0,1,3.05-7.49,63.39,63.39,0,0,1,3.53-7.28,63.61,63.61,0,0,1-3.06,7.49A62.45,62.45,0,0,1,292.3,228.63Z"/><path class="cls-4" d="M324.39,252.32a46.77,46.77,0,0,1-4.59-5.14,45.93,45.93,0,0,1-4.19-5.48,45.6,45.6,0,0,1,4.59,5.14A44.14,44.14,0,0,1,324.39,252.32Z"/><path class="cls-4" d="M317,284.89a36.86,36.86,0,0,1,3.46-5.22,38.84,38.84,0,0,1,3.88-4.91,37.53,37.53,0,0,1-3.46,5.22A38.67,38.67,0,0,1,317,284.89Z"/><path class="cls-4" d="M307.07,330.89a9.29,9.29,0,0,1-1.17-2c-.66-1.28-1.51-3.07-2.37-5.09s-1.55-3.87-2-5.23a10,10,0,0,1-.63-2.24,11.09,11.09,0,0,1,1,2.11L304,323.6c.82,1.91,1.57,3.63,2.22,5.13A10.67,10.67,0,0,1,307.07,330.89Z"/><path class="cls-4" d="M335.31,311.34a72.47,72.47,0,0,1-12-2.33,34.7,34.7,0,0,1,6.07.91A36.15,36.15,0,0,1,335.31,311.34Z"/><path class="cls-4" d="M357.21,268.35a75.27,75.27,0,0,1,5.79-6.63,74.75,74.75,0,0,1,6.17-6.27,73,73,0,0,1-5.79,6.63A73,73,0,0,1,357.21,268.35Z"/><path class="cls-4" d="M379.25,325.68c-.11.09-3.35-3.65-7.22-8.36s-6.94-8.59-6.82-8.69,3.34,3.65,7.22,8.36S379.36,325.59,379.25,325.68Z"/><path class="cls-4" d="M242.46,301.24c.08.15-2.88,1.65-6.1,4.12s-5.46,4.9-5.58,4.79a8.25,8.25,0,0,1,1.36-1.69,32.18,32.18,0,0,1,8.33-6.35A7.86,7.86,0,0,1,242.46,301.24Z"/><path class="cls-4" d="M250.7,279.15a20.66,20.66,0,0,1-2.35,4,20.4,20.4,0,0,1-2.78,3.71,20.66,20.66,0,0,1,2.35-4A21,21,0,0,1,250.7,279.15Z"/><path class="cls-4" d="M269.27,300.85a9.83,9.83,0,0,1-1.7-4.11,10,10,0,0,1-.25-4.44c.16,0,.21,2,.75,4.32S269.41,300.78,269.27,300.85Z"/><path class="cls-4" d="M272,231.93a15.5,15.5,0,0,1-3.85.81,15.33,15.33,0,0,1-3.93.29,15.36,15.36,0,0,1,3.85-.81A14.81,14.81,0,0,1,272,231.93Z"/><path class="cls-4" d="M286,207.2a15.31,15.31,0,0,1-3.37,2.17,15.81,15.81,0,0,1-3.63,1.71,31,31,0,0,1,7-3.88Z"/><path class="cls-4" d="M325.17,217.64a34.1,34.1,0,0,1-3.86-4.63,34.94,34.94,0,0,1-3.44-4.95,35.81,35.81,0,0,1,3.86,4.63A36.7,36.7,0,0,1,325.17,217.64Z"/><path class="cls-4" d="M374.94,242.51a24.49,24.49,0,0,1-6.05-9.72c.14-.07,1.22,2.27,2.89,4.94S375.06,242.41,374.94,242.51Z"/><path class="cls-4" d="M393.94,248.77a29.64,29.64,0,0,1-2.06,5.17,29.81,29.81,0,0,1-2.54,5,59.2,59.2,0,0,1,4.6-10.13Z"/><path class="cls-4" d="M396.59,222.84a55.68,55.68,0,0,1-5-5.66,55.39,55.39,0,0,1-4.65-6,55.68,55.68,0,0,1,5.05,5.66A55.39,55.39,0,0,1,396.59,222.84Z"/><path class="cls-4" d="M367.58,201.78a23,23,0,0,1-.45-4.85,22,22,0,0,1,.07-4.86,23.5,23.5,0,0,1,.45,4.84A23.69,23.69,0,0,1,367.58,201.78Z"/><path class="cls-4" d="M391.24,200.47a38.07,38.07,0,0,1-6.18,1.08,38.6,38.6,0,0,1-6.24.58,74.75,74.75,0,0,1,12.42-1.66Z"/><path class="cls-4" d="M428.5,227.84a60.78,60.78,0,0,1-3.72-7.09,62.53,62.53,0,0,1-3.25-7.3,59.11,59.11,0,0,1,3.72,7.08A61.39,61.39,0,0,1,428.5,227.84Z"/><path class="cls-4" d="M422.22,251.48a32.44,32.44,0,0,1,.87-5.69,33.2,33.2,0,0,1,1.38-5.59,30.09,30.09,0,0,1-.87,5.69A31.79,31.79,0,0,1,422.22,251.48Z"/><path class="cls-4" d="M439.5,270.13a66.32,66.32,0,0,1-3-7.68,64.64,64.64,0,0,1-2.47-7.86,66.32,66.32,0,0,1,3,7.68A64,64,0,0,1,439.5,270.13Z"/><path class="cls-4" d="M437.1,281a13.44,13.44,0,0,1-5.05-1.8,13.61,13.61,0,0,1-4.28-3.25c.11-.12,2,1.41,4.52,2.79S437.14,280.88,437.1,281Z"/><path class="cls-4" d="M459.24,305.9a14.23,14.23,0,0,1-1.8-3.39,14.06,14.06,0,0,1-1.31-3.6,28.55,28.55,0,0,1,3.11,7Z"/><path class="cls-4" d="M328.48,340.58a20.07,20.07,0,0,1-.78-4.43,19.53,19.53,0,0,1-.26-4.49,38.65,38.65,0,0,1,1,8.92Z"/><path class="cls-4" d="M396.41,338.86a18.58,18.58,0,0,1,.65-4.33,17.72,17.72,0,0,1,1.17-4.22,19,19,0,0,1-.66,4.33A18.6,18.6,0,0,1,396.41,338.86Z"/></g><g id="Speech_Bubble" data-name="Speech Bubble"><path class="cls-10" d="M409.43,140.57l8.79-15.48a41.46,41.46,0,1,1,9.93,11v0Z"/><path class="cls-1" d="M409.43,140.57l18.76-4.29.19,0-.12-.16v0l-.18.18a42.62,42.62,0,0,0,8.52,5.14A41.71,41.71,0,0,0,448,144.62a37.1,37.1,0,0,0,6.55.33c1.13-.06,2.28-.09,3.44-.19l3.5-.53a41.76,41.76,0,0,0,25.88-16.61,41.29,41.29,0,0,0,7-16,42.11,42.11,0,0,0-.49-18.43,40.73,40.73,0,0,0-8.87-17l-1.7-1.86c-.55-.63-1.22-1.15-1.82-1.72s-1.2-1.16-1.88-1.64l-2-1.49a19.8,19.8,0,0,0-2.06-1.36l-2.1-1.27-2.2-1.07a20.88,20.88,0,0,0-2.22-1,42.19,42.19,0,0,0-18.57-2.85,40.71,40.71,0,0,0-17,5,42,42,0,0,0-19.66,24.19,44.6,44.6,0,0,0-1.8,13.47,41,41,0,0,0,2,11.63,42,42,0,0,0,4.15,8.91V125c-5.54,9.93-8.25,14.78-8.68,15.54l8.89-15.42,0-.06,0-.06a42.37,42.37,0,0,1-4.08-8.88,41.36,41.36,0,0,1-2-11.55,44.44,44.44,0,0,1,1.83-13.34,41.64,41.64,0,0,1,19.5-23.9,40.4,40.4,0,0,1,16.86-5,41.87,41.87,0,0,1,18.34,2.83,18.55,18.55,0,0,1,2.19,1l2.17,1.05,2.08,1.27a16.19,16.19,0,0,1,2,1.34l2,1.47A23.7,23.7,0,0,1,481.1,73c.59.57,1.25,1.07,1.8,1.69l1.67,1.84a40.38,40.38,0,0,1,8.77,16.83,41.83,41.83,0,0,1,.5,18.2,40.79,40.79,0,0,1-6.9,15.82,41.42,41.42,0,0,1-25.58,16.5l-3.46.53c-1.15.1-2.29.13-3.41.2a36.61,36.61,0,0,1-6.5-.31,41.35,41.35,0,0,1-11.27-3.17,42.33,42.33,0,0,1-8.49-5.05l-.77-.59.59.77v0l.07-.2Z"/><path class="cls-1" d="M464.67,101.68a4,4,0,1,0,4-4.05A4,4,0,0,0,464.67,101.68Z"/><path class="cls-1" d="M448.48,101.68a4,4,0,1,0,4-4.05A4,4,0,0,0,448.48,101.68Z"/><path class="cls-1" d="M432.32,99.65a4,4,0,1,0,5.53-1.48A4.06,4.06,0,0,0,432.32,99.65Z"/></g></svg>